# beacon (shared across stages) — generated by scripts/gen-assets.py (do not edit by hand)
v 0.060000 -1.700000 0.000000
v 0.042426 -1.700000 0.042426
v 0.000000 -1.700000 0.060000
v -0.042426 -1.700000 0.042426
v -0.060000 -1.700000 0.000000
v -0.042426 -1.700000 -0.042426
v -0.000000 -1.700000 -0.060000
v 0.042426 -1.700000 -0.042426
v 0.260000 1.700000 0.000000
v 0.183848 1.700000 0.183848
v 0.000000 1.700000 0.260000
v -0.183848 1.700000 0.183848
v -0.260000 1.700000 0.000000
v -0.183848 1.700000 -0.183848
v -0.000000 1.700000 -0.260000
v 0.183848 1.700000 -0.183848
v 0.000000 -1.700000 0.000000
v 0.000000 1.700000 0.000000
v 0.420000 -0.590000 0.000000
v 0.388029 -0.590000 0.160727
v 0.296985 -0.590000 0.296985
v 0.160727 -0.590000 0.388029
v 0.000000 -0.590000 0.420000
v -0.160727 -0.590000 0.388029
v -0.296985 -0.590000 0.296985
v -0.388029 -0.590000 0.160727
v -0.420000 -0.590000 0.000000
v -0.388029 -0.590000 -0.160727
v -0.296985 -0.590000 -0.296985
v -0.160727 -0.590000 -0.388029
v -0.000000 -0.590000 -0.420000
v 0.160727 -0.590000 -0.388029
v 0.296985 -0.590000 -0.296985
v 0.388029 -0.590000 -0.160727
v 0.420000 -0.510000 0.000000
v 0.388029 -0.510000 0.160727
v 0.296985 -0.510000 0.296985
v 0.160727 -0.510000 0.388029
v 0.000000 -0.510000 0.420000
v -0.160727 -0.510000 0.388029
v -0.296985 -0.510000 0.296985
v -0.388029 -0.510000 0.160727
v -0.420000 -0.510000 0.000000
v -0.388029 -0.510000 -0.160727
v -0.296985 -0.510000 -0.296985
v -0.160727 -0.510000 -0.388029
v -0.000000 -0.510000 -0.420000
v 0.160727 -0.510000 -0.388029
v 0.296985 -0.510000 -0.296985
v 0.388029 -0.510000 -0.160727
v 0.000000 -0.590000 0.000000
v 0.000000 -0.510000 0.000000
v 0.340000 1.490000 0.000000
v 0.240416 1.490000 0.240416
v 0.000000 1.490000 0.340000
v -0.240416 1.490000 0.240416
v -0.340000 1.490000 0.000000
v -0.240416 1.490000 -0.240416
v -0.000000 1.490000 -0.340000
v 0.240416 1.490000 -0.240416
v 0.460000 1.710000 0.000000
v 0.325269 1.710000 0.325269
v 0.000000 1.710000 0.460000
v -0.325269 1.710000 0.325269
v -0.460000 1.710000 0.000000
v -0.325269 1.710000 -0.325269
v -0.000000 1.710000 -0.460000
v 0.325269 1.710000 -0.325269
v 0.000000 1.490000 0.000000
v 0.000000 1.710000 0.000000
vt 0.500000 0.988770
vt 0.625000 0.988770
vt 0.750000 0.988770
vt 0.875000 0.988770
vt 1.000000 0.988770
vt 0.125000 0.988770
vt 0.250000 0.988770
vt 0.375000 0.988770
vt 0.500000 0.048308
vt 0.625000 0.048308
vt 0.750000 0.048308
vt 0.875000 0.048308
vt 1.000000 0.048308
vt 0.125000 0.048308
vt 0.250000 0.048308
vt 0.375000 0.048308
vt 0.500000 1.000000
vt 0.500000 0.000000
vt 0.500000 0.803079
vt 0.562500 0.803079
vt 0.625000 0.803079
vt 0.687500 0.803079
vt 0.750000 0.803079
vt 0.812500 0.803079
vt 0.875000 0.803079
vt 0.937500 0.803079
vt 1.000000 0.803079
vt 0.062500 0.803079
vt 0.125000 0.803079
vt 0.187500 0.803079
vt 0.250000 0.803079
vt 0.312500 0.803079
vt 0.375000 0.803079
vt 0.437500 0.803079
vt 0.500000 0.780709
vt 0.562500 0.780709
vt 0.625000 0.780709
vt 0.687500 0.780709
vt 0.750000 0.780709
vt 0.812500 0.780709
vt 0.875000 0.780709
vt 0.937500 0.780709
vt 1.000000 0.780709
vt 0.062500 0.780709
vt 0.125000 0.780709
vt 0.187500 0.780709
vt 0.250000 0.780709
vt 0.312500 0.780709
vt 0.375000 0.780709
vt 0.437500 0.780709
vt 0.500000 1.000000
vt 0.500000 1.000000
vt 0.500000 0.071412
vt 0.625000 0.071412
vt 0.750000 0.071412
vt 0.875000 0.071412
vt 1.000000 0.071412
vt 0.125000 0.071412
vt 0.250000 0.071412
vt 0.375000 0.071412
vt 0.500000 0.083647
vt 0.625000 0.083647
vt 0.750000 0.083647
vt 0.875000 0.083647
vt 1.000000 0.083647
vt 0.125000 0.083647
vt 0.250000 0.083647
vt 0.375000 0.083647
vt 0.500000 0.000000
vt 0.500000 0.000000
vn -0.922518 0.054266 -0.382120
vn -0.922518 0.054266 -0.382120
vn 0.000000 -1.000000 0.000000
vn 0.000000 1.000000 0.000000
vn -0.382120 0.054266 -0.922518
vn -0.382120 0.054266 -0.922518
vn 0.000000 -1.000000 0.000000
vn 0.000000 1.000000 0.000000
vn 0.382120 0.054266 -0.922518
vn 0.382120 0.054266 -0.922518
vn 0.000000 -1.000000 0.000000
vn 0.000000 1.000000 -0.000000
vn 0.922518 0.054266 -0.382120
vn 0.922518 0.054266 -0.382120
vn 0.000000 -1.000000 0.000000
vn 0.000000 1.000000 0.000000
vn 0.922518 0.054266 0.382120
vn 0.922518 0.054266 0.382120
vn -0.000000 -1.000000 0.000000
vn 0.000000 1.000000 0.000000
vn 0.382120 0.054266 0.922518
vn 0.382120 0.054266 0.922518
vn 0.000000 -1.000000 0.000000
vn 0.000000 1.000000 0.000000
vn -0.382120 0.054266 0.922518
vn -0.382120 0.054266 0.922518
vn 0.000000 -1.000000 -0.000000
vn 0.000000 1.000000 0.000000
vn -0.922518 0.054266 0.382120
vn -0.922518 0.054266 0.382120
vn 0.000000 -1.000000 0.000000
vn -0.000000 1.000000 0.000000
vn -0.980785 0.000000 -0.195090
vn -0.980785 0.000000 -0.195090
vn 0.000000 -1.000000 0.000000
vn 0.000000 1.000000 0.000000
vn -0.831470 0.000000 -0.555570
vn -0.831470 0.000000 -0.555570
vn 0.000000 -1.000000 0.000000
vn 0.000000 1.000000 0.000000
vn -0.555570 0.000000 -0.831470
vn -0.555570 0.000000 -0.831470
vn 0.000000 -1.000000 0.000000
vn 0.000000 1.000000 0.000000
vn -0.195090 0.000000 -0.980785
vn -0.195090 0.000000 -0.980785
vn 0.000000 -1.000000 0.000000
vn 0.000000 1.000000 0.000000
vn 0.195090 0.000000 -0.980785
vn 0.195090 0.000000 -0.980785
vn 0.000000 -1.000000 0.000000
vn 0.000000 1.000000 -0.000000
vn 0.555570 0.000000 -0.831470
vn 0.555570 0.000000 -0.831470
vn 0.000000 -1.000000 0.000000
vn 0.000000 1.000000 0.000000
vn 0.831470 0.000000 -0.555570
vn 0.831470 0.000000 -0.555570
vn 0.000000 -1.000000 0.000000
vn 0.000000 1.000000 0.000000
vn 0.980785 0.000000 -0.195090
vn 0.980785 0.000000 -0.195090
vn 0.000000 -1.000000 0.000000
vn 0.000000 1.000000 0.000000
vn 0.980785 -0.000000 0.195090
vn 0.980785 0.000000 0.195090
vn -0.000000 -1.000000 0.000000
vn 0.000000 1.000000 0.000000
vn 0.831470 -0.000000 0.555570
vn 0.831470 0.000000 0.555570
vn 0.000000 -1.000000 0.000000
vn 0.000000 1.000000 0.000000
vn 0.555570 -0.000000 0.831470
vn 0.555570 0.000000 0.831470
vn 0.000000 -1.000000 0.000000
vn 0.000000 1.000000 0.000000
vn 0.195090 -0.000000 0.980785
vn 0.195090 0.000000 0.980785
vn 0.000000 -1.000000 0.000000
vn 0.000000 1.000000 0.000000
vn -0.195090 0.000000 0.980785
vn -0.195090 0.000000 0.980785
vn 0.000000 -1.000000 -0.000000
vn 0.000000 1.000000 0.000000
vn -0.555570 0.000000 0.831470
vn -0.555570 0.000000 0.831470
vn 0.000000 -1.000000 0.000000
vn 0.000000 1.000000 0.000000
vn -0.831470 0.000000 0.555570
vn -0.831470 0.000000 0.555570
vn 0.000000 -1.000000 0.000000
vn 0.000000 1.000000 0.000000
vn -0.980785 0.000000 0.195090
vn -0.980785 0.000000 0.195090
vn 0.000000 -1.000000 0.000000
vn -0.000000 1.000000 0.000000
vn -0.825041 0.450022 -0.341743
vn -0.825041 0.450022 -0.341743
vn 0.000000 -1.000000 0.000000
vn 0.000000 1.000000 0.000000
vn -0.341743 0.450022 -0.825041
vn -0.341743 0.450022 -0.825041
vn 0.000000 -1.000000 0.000000
vn 0.000000 1.000000 0.000000
vn 0.341743 0.450022 -0.825041
vn 0.341743 0.450022 -0.825041
vn 0.000000 -1.000000 0.000000
vn 0.000000 1.000000 -0.000000
vn 0.825041 0.450022 -0.341743
vn 0.825041 0.450022 -0.341743
vn 0.000000 -1.000000 0.000000
vn 0.000000 1.000000 0.000000
vn 0.825041 0.450022 0.341743
vn 0.825041 0.450022 0.341743
vn -0.000000 -1.000000 0.000000
vn 0.000000 1.000000 0.000000
vn 0.341743 0.450022 0.825041
vn 0.341743 0.450022 0.825041
vn 0.000000 -1.000000 0.000000
vn 0.000000 1.000000 0.000000
vn -0.341743 0.450022 0.825041
vn -0.341743 0.450022 0.825041
vn 0.000000 -1.000000 -0.000000
vn 0.000000 1.000000 0.000000
vn -0.825041 0.450022 0.341743
vn -0.825041 0.450022 0.341743
vn 0.000000 -1.000000 0.000000
vn -0.000000 1.000000 0.000000
f 1/1/1 10/10/1 9/9/1
f 1/1/2 2/2/2 10/10/2
f 17/17/3 1/1/3 2/2/3
f 18/18/4 10/10/4 9/9/4
f 2/2/5 11/11/5 10/10/5
f 2/2/6 3/3/6 11/11/6
f 17/17/7 2/2/7 3/3/7
f 18/18/8 11/11/8 10/10/8
f 3/3/9 12/12/9 11/11/9
f 3/3/10 4/4/10 12/12/10
f 17/17/11 3/3/11 4/4/11
f 18/18/12 12/12/12 11/11/12
f 4/4/13 13/13/13 12/12/13
f 4/4/14 5/5/14 13/13/14
f 17/17/15 4/4/15 5/5/15
f 18/18/16 13/13/16 12/12/16
f 5/5/17 14/14/17 13/13/17
f 5/5/18 6/6/18 14/14/18
f 17/17/19 5/5/19 6/6/19
f 18/18/20 14/14/20 13/13/20
f 6/6/21 15/15/21 14/14/21
f 6/6/22 7/7/22 15/15/22
f 17/17/23 6/6/23 7/7/23
f 18/18/24 15/15/24 14/14/24
f 7/7/25 16/16/25 15/15/25
f 7/7/26 8/8/26 16/16/26
f 17/17/27 7/7/27 8/8/27
f 18/18/28 16/16/28 15/15/28
f 8/8/29 9/9/29 16/16/29
f 8/8/30 1/1/30 9/9/30
f 17/17/31 8/8/31 1/1/31
f 18/18/32 9/9/32 16/16/32
f 19/19/33 36/36/33 35/35/33
f 19/19/34 20/20/34 36/36/34
f 51/51/35 19/19/35 20/20/35
f 52/52/36 36/36/36 35/35/36
f 20/20/37 37/37/37 36/36/37
f 20/20/38 21/21/38 37/37/38
f 51/51/39 20/20/39 21/21/39
f 52/52/40 37/37/40 36/36/40
f 21/21/41 38/38/41 37/37/41
f 21/21/42 22/22/42 38/38/42
f 51/51/43 21/21/43 22/22/43
f 52/52/44 38/38/44 37/37/44
f 22/22/45 39/39/45 38/38/45
f 22/22/46 23/23/46 39/39/46
f 51/51/47 22/22/47 23/23/47
f 52/52/48 39/39/48 38/38/48
f 23/23/49 40/40/49 39/39/49
f 23/23/50 24/24/50 40/40/50
f 51/51/51 23/23/51 24/24/51
f 52/52/52 40/40/52 39/39/52
f 24/24/53 41/41/53 40/40/53
f 24/24/54 25/25/54 41/41/54
f 51/51/55 24/24/55 25/25/55
f 52/52/56 41/41/56 40/40/56
f 25/25/57 42/42/57 41/41/57
f 25/25/58 26/26/58 42/42/58
f 51/51/59 25/25/59 26/26/59
f 52/52/60 42/42/60 41/41/60
f 26/26/61 43/43/61 42/42/61
f 26/26/62 27/27/62 43/43/62
f 51/51/63 26/26/63 27/27/63
f 52/52/64 43/43/64 42/42/64
f 27/27/65 44/44/65 43/43/65
f 27/27/66 28/28/66 44/44/66
f 51/51/67 27/27/67 28/28/67
f 52/52/68 44/44/68 43/43/68
f 28/28/69 45/45/69 44/44/69
f 28/28/70 29/29/70 45/45/70
f 51/51/71 28/28/71 29/29/71
f 52/52/72 45/45/72 44/44/72
f 29/29/73 46/46/73 45/45/73
f 29/29/74 30/30/74 46/46/74
f 51/51/75 29/29/75 30/30/75
f 52/52/76 46/46/76 45/45/76
f 30/30/77 47/47/77 46/46/77
f 30/30/78 31/31/78 47/47/78
f 51/51/79 30/30/79 31/31/79
f 52/52/80 47/47/80 46/46/80
f 31/31/81 48/48/81 47/47/81
f 31/31/82 32/32/82 48/48/82
f 51/51/83 31/31/83 32/32/83
f 52/52/84 48/48/84 47/47/84
f 32/32/85 49/49/85 48/48/85
f 32/32/86 33/33/86 49/49/86
f 51/51/87 32/32/87 33/33/87
f 52/52/88 49/49/88 48/48/88
f 33/33/89 50/50/89 49/49/89
f 33/33/90 34/34/90 50/50/90
f 51/51/91 33/33/91 34/34/91
f 52/52/92 50/50/92 49/49/92
f 34/34/93 35/35/93 50/50/93
f 34/34/94 19/19/94 35/35/94
f 51/51/95 34/34/95 19/19/95
f 52/52/96 35/35/96 50/50/96
f 53/53/97 62/62/97 61/61/97
f 53/53/98 54/54/98 62/62/98
f 69/69/99 53/53/99 54/54/99
f 70/70/100 62/62/100 61/61/100
f 54/54/101 63/63/101 62/62/101
f 54/54/102 55/55/102 63/63/102
f 69/69/103 54/54/103 55/55/103
f 70/70/104 63/63/104 62/62/104
f 55/55/105 64/64/105 63/63/105
f 55/55/106 56/56/106 64/64/106
f 69/69/107 55/55/107 56/56/107
f 70/70/108 64/64/108 63/63/108
f 56/56/109 65/65/109 64/64/109
f 56/56/110 57/57/110 65/65/110
f 69/69/111 56/56/111 57/57/111
f 70/70/112 65/65/112 64/64/112
f 57/57/113 66/66/113 65/65/113
f 57/57/114 58/58/114 66/66/114
f 69/69/115 57/57/115 58/58/115
f 70/70/116 66/66/116 65/65/116
f 58/58/117 67/67/117 66/66/117
f 58/58/118 59/59/118 67/67/118
f 69/69/119 58/58/119 59/59/119
f 70/70/120 67/67/120 66/66/120
f 59/59/121 68/68/121 67/67/121
f 59/59/122 60/60/122 68/68/122
f 69/69/123 59/59/123 60/60/123
f 70/70/124 68/68/124 67/67/124
f 60/60/125 61/61/125 68/68/125
f 60/60/126 53/53/126 61/61/126
f 69/69/127 60/60/127 53/53/127
f 70/70/128 61/61/128 68/68/128
