# core (pickup) — generated by scripts/gen-assets.py (do not edit by hand)
v -0.525731 -0.850651 0.000000
v 0.525731 -0.850651 0.000000
v -0.525731 0.850651 0.000000
v 0.525731 0.850651 0.000000
v 0.000000 0.525731 0.850651
v 0.000000 -0.525731 0.850651
v 0.000000 0.525731 -0.850651
v 0.000000 -0.525731 -0.850651
v 0.850651 -0.000000 -0.525731
v 0.850651 -0.000000 0.525731
v -0.850651 -0.000000 -0.525731
v -0.850651 -0.000000 0.525731
v -0.809017 -0.500000 0.309017
v -0.500000 -0.309017 0.809017
v -0.309017 -0.809017 0.500000
v 0.309017 -0.809017 0.500000
v 0.000000 -1.000000 0.000000
v 0.309017 -0.809017 -0.500000
v -0.309017 -0.809017 -0.500000
v -0.500000 -0.309017 -0.809017
v -0.809017 -0.500000 -0.309017
v -1.000000 -0.000000 0.000000
v 0.500000 -0.309017 0.809017
v 0.809017 -0.500000 0.309017
v -0.500000 0.309017 0.809017
v 0.000000 -0.000000 1.000000
v -0.809017 0.500000 -0.309017
v -0.809017 0.500000 0.309017
v 0.000000 -0.000000 -1.000000
v -0.500000 0.309017 -0.809017
v 0.809017 -0.500000 -0.309017
v 0.500000 -0.309017 -0.809017
v 0.809017 0.500000 0.309017
v 0.500000 0.309017 0.809017
v 0.309017 0.809017 0.500000
v -0.309017 0.809017 0.500000
v 0.000000 1.000000 0.000000
v -0.309017 0.809017 -0.500000
v 0.309017 0.809017 -0.500000
v 0.500000 0.309017 -0.809017
v 0.809017 0.500000 -0.309017
v 1.000000 -0.000000 0.000000
vt 1.000000 0.823792
vt 0.500000 0.823792
vt 1.000000 0.176208
vt 0.500000 0.176208
vt 0.750000 0.323792
vt 0.750000 0.676208
vt 0.250000 0.323792
vt 0.250000 0.676208
vt 0.411896 0.500000
vt 0.588104 0.500000
vt 0.088104 0.500000
vt 0.911896 0.500000
vt 0.941930 0.666667
vt 0.838104 0.600000
vt 0.838104 0.800000
vt 0.661896 0.800000
vt 0.500000 1.000000
vt 0.338104 0.800000
vt 0.161896 0.800000
vt 0.161896 0.600000
vt 0.058070 0.666667
vt 1.000000 0.500000
vt 0.661896 0.600000
vt 0.558070 0.666667
vt 0.838104 0.400000
vt 0.750000 0.500000
vt 0.058070 0.333333
vt 0.941930 0.333333
vt 0.250000 0.500000
vt 0.161896 0.400000
vt 0.441930 0.666667
vt 0.338104 0.600000
vt 0.558070 0.333333
vt 0.661896 0.400000
vt 0.661896 0.200000
vt 0.838104 0.200000
vt 0.500000 0.000000
vt 0.161896 0.200000
vt 0.338104 0.200000
vt 0.338104 0.400000
vt 0.441930 0.333333
vt 0.500000 0.500000
vn -0.583129 -0.748783 0.315094
vn -0.748783 -0.315094 0.583129
vn -0.315094 -0.583129 0.748783
vn -0.577350 -0.577350 0.577350
vn -0.268035 -0.943522 0.194739
vn 0.000000 -0.777868 0.628428
vn 0.268035 -0.943522 0.194739
vn 0.000000 -0.934172 0.356822
vn -0.268035 -0.943522 -0.194739
vn 0.268035 -0.943522 -0.194739
vn 0.000000 -0.777868 -0.628428
vn 0.000000 -0.934172 -0.356822
vn -0.583129 -0.748783 -0.315094
vn -0.315094 -0.583129 -0.748783
vn -0.748783 -0.315094 -0.583129
vn -0.577350 -0.577350 -0.577350
vn -0.777868 -0.628428 0.000000
vn -0.943522 -0.194739 -0.268035
vn -0.943522 -0.194739 0.268035
vn -0.934172 -0.356822 0.000000
vn 0.583129 -0.748783 0.315094
vn 0.315094 -0.583129 0.748783
vn 0.748783 -0.315094 0.583129
vn 0.577350 -0.577350 0.577350
vn -0.194739 -0.268035 0.943522
vn -0.628428 0.000000 0.777868
vn -0.194739 0.268035 0.943522
vn -0.356822 0.000000 0.934172
vn -0.943522 0.194739 0.268035
vn -0.943522 0.194739 -0.268035
vn -0.777868 0.628428 0.000000
vn -0.934172 0.356822 0.000000
vn -0.628428 0.000000 -0.777868
vn -0.194739 -0.268035 -0.943522
vn -0.194739 0.268035 -0.943522
vn -0.356822 0.000000 -0.934172
vn 0.315094 -0.583129 -0.748783
vn 0.583129 -0.748783 -0.315094
vn 0.748783 -0.315094 -0.583129
vn 0.577350 -0.577350 -0.577350
vn 0.583129 0.748783 0.315094
vn 0.748783 0.315094 0.583129
vn 0.315094 0.583129 0.748783
vn 0.577350 0.577350 0.577350
vn 0.268035 0.943522 0.194739
vn 0.000000 0.777868 0.628428
vn -0.268035 0.943522 0.194739
vn 0.000000 0.934172 0.356822
vn 0.268035 0.943522 -0.194739
vn -0.268035 0.943522 -0.194739
vn 0.000000 0.777868 -0.628428
vn 0.000000 0.934172 -0.356822
vn 0.583129 0.748783 -0.315094
vn 0.315094 0.583129 -0.748783
vn 0.748783 0.315094 -0.583129
vn 0.577350 0.577350 -0.577350
vn 0.777868 0.628428 0.000000
vn 0.943522 0.194739 -0.268035
vn 0.943522 0.194739 0.268035
vn 0.934172 0.356822 -0.000000
vn 0.194739 0.268035 0.943522
vn 0.628428 0.000000 0.777868
vn 0.194739 -0.268035 0.943522
vn 0.356822 0.000000 0.934172
vn -0.583129 0.748783 0.315094
vn -0.315094 0.583129 0.748783
vn -0.748783 0.315094 0.583129
vn -0.577350 0.577350 0.577350
vn -0.315094 0.583129 -0.748783
vn -0.583129 0.748783 -0.315094
vn -0.748783 0.315094 -0.583129
vn -0.577350 0.577350 -0.577350
vn 0.628428 0.000000 -0.777868
vn 0.194739 0.268035 -0.943522
vn 0.194739 -0.268035 -0.943522
vn 0.356822 0.000000 -0.934172
vn 0.943522 -0.194739 0.268035
vn 0.943522 -0.194739 -0.268035
vn 0.777868 -0.628428 0.000000
vn 0.934172 -0.356822 0.000000
f 1/1/1 15/15/1 13/13/1
f 12/12/2 13/13/2 14/14/2
f 6/6/3 14/14/3 15/15/3
f 13/13/4 15/15/4 14/14/4
f 1/1/5 17/17/5 15/15/5
f 6/6/6 15/15/6 16/16/6
f 2/2/7 16/16/7 17/17/7
f 15/15/8 17/17/8 16/16/8
f 1/1/9 19/19/9 17/17/9
f 2/2/10 17/17/10 18/18/10
f 8/8/11 18/18/11 19/19/11
f 17/17/12 19/19/12 18/18/12
f 1/1/13 21/21/13 19/19/13
f 8/8/14 19/19/14 20/20/14
f 11/11/15 20/20/15 21/21/15
f 19/19/16 21/21/16 20/20/16
f 1/1/17 13/13/17 21/21/17
f 11/11/18 21/21/18 22/22/18
f 12/12/19 22/22/19 13/13/19
f 21/21/20 13/13/20 22/22/20
f 2/2/21 24/24/21 16/16/21
f 6/6/22 16/16/22 23/23/22
f 10/10/23 23/23/23 24/24/23
f 16/16/24 24/24/24 23/23/24
f 6/6/25 26/26/25 14/14/25
f 12/12/26 14/14/26 25/25/26
f 5/5/27 25/25/27 26/26/27
f 14/14/28 26/26/28 25/25/28
f 12/12/29 28/28/29 22/22/29
f 11/11/30 22/22/30 27/27/30
f 3/3/31 27/27/31 28/28/31
f 22/22/32 28/28/32 27/27/32
f 11/11/33 30/30/33 20/20/33
f 8/8/34 20/20/34 29/29/34
f 7/7/35 29/29/35 30/30/35
f 20/20/36 30/30/36 29/29/36
f 8/8/37 32/32/37 18/18/37
f 2/2/38 18/18/38 31/31/38
f 9/9/39 31/31/39 32/32/39
f 18/18/40 32/32/40 31/31/40
f 4/4/41 35/35/41 33/33/41
f 10/10/42 33/33/42 34/34/42
f 5/5/43 34/34/43 35/35/43
f 33/33/44 35/35/44 34/34/44
f 4/4/45 37/37/45 35/35/45
f 5/5/46 35/35/46 36/36/46
f 3/3/47 36/36/47 37/37/47
f 35/35/48 37/37/48 36/36/48
f 4/4/49 39/39/49 37/37/49
f 3/3/50 37/37/50 38/38/50
f 7/7/51 38/38/51 39/39/51
f 37/37/52 39/39/52 38/38/52
f 4/4/53 41/41/53 39/39/53
f 7/7/54 39/39/54 40/40/54
f 9/9/55 40/40/55 41/41/55
f 39/39/56 41/41/56 40/40/56
f 4/4/57 33/33/57 41/41/57
f 9/9/58 41/41/58 42/42/58
f 10/10/59 42/42/59 33/33/59
f 41/41/60 33/33/60 42/42/60
f 5/5/61 26/26/61 34/34/61
f 10/10/62 34/34/62 23/23/62
f 6/6/63 23/23/63 26/26/63
f 34/34/64 26/26/64 23/23/64
f 3/3/65 28/28/65 36/36/65
f 5/5/66 36/36/66 25/25/66
f 12/12/67 25/25/67 28/28/67
f 36/36/68 28/28/68 25/25/68
f 7/7/69 30/30/69 38/38/69
f 3/3/70 38/38/70 27/27/70
f 11/11/71 27/27/71 30/30/71
f 38/38/72 30/30/72 27/27/72
f 9/9/73 32/32/73 40/40/73
f 7/7/74 40/40/74 29/29/74
f 8/8/75 29/29/75 32/32/75
f 40/40/76 32/32/76 29/29/76
f 10/10/77 24/24/77 42/42/77
f 9/9/78 42/42/78 31/31/78
f 2/2/79 31/31/79 24/24/79
f 42/42/80 24/24/80 31/31/80
