# drone (player) — generated by scripts/gen-assets.py (do not edit by hand)
v -0.525731 -0.382793 0.000000
v 0.525731 -0.382793 0.000000
v -0.525731 0.382793 0.000000
v 0.525731 0.382793 0.000000
v 0.000000 0.236579 1.148379
v 0.000000 -0.236579 1.148379
v 0.000000 0.236579 -1.148379
v 0.000000 -0.236579 -1.148379
v 0.850651 -0.000000 -0.709737
v 0.850651 -0.000000 0.709737
v -0.850651 -0.000000 -0.709737
v -0.850651 -0.000000 0.709737
v -0.809017 -0.225000 0.417173
v -0.500000 -0.139058 1.092173
v -0.309017 -0.364058 0.675000
v 0.309017 -0.364058 0.675000
v 0.000000 -0.450000 0.000000
v 0.309017 -0.364058 -0.675000
v -0.309017 -0.364058 -0.675000
v -0.500000 -0.139058 -1.092173
v -0.809017 -0.225000 -0.417173
v -1.000000 -0.000000 0.000000
v 0.500000 -0.139058 1.092173
v 0.809017 -0.225000 0.417173
v -0.500000 0.139058 1.092173
v 0.000000 -0.000000 1.350000
v -0.809017 0.225000 -0.417173
v -0.809017 0.225000 0.417173
v 0.000000 -0.000000 -1.350000
v -0.500000 0.139058 -1.092173
v 0.809017 -0.225000 -0.417173
v 0.500000 -0.139058 -1.092173
v 0.809017 0.225000 0.417173
v 0.500000 0.139058 1.092173
v 0.309017 0.364058 0.675000
v -0.309017 0.364058 0.675000
v 0.000000 0.450000 0.000000
v -0.309017 0.364058 -0.675000
v 0.309017 0.364058 -0.675000
v 0.500000 0.139058 -1.092173
v 0.809017 0.225000 -0.417173
v 1.000000 -0.000000 0.000000
v 0.780000 0.050000 0.350000
v 0.749443 -0.044046 0.350000
v 0.669443 -0.102169 0.350000
v 0.570557 -0.102169 0.350000
v 0.490557 -0.044046 0.350000
v 0.460000 0.050000 0.350000
v 0.490557 0.144046 0.350000
v 0.570557 0.202169 0.350000
v 0.669443 0.202169 0.350000
v 0.749443 0.144046 0.350000
v 0.840000 0.050000 -0.550000
v 0.797984 -0.079313 -0.550000
v 0.687984 -0.159232 -0.550000
v 0.552016 -0.159232 -0.550000
v 0.442016 -0.079313 -0.550000
v 0.400000 0.050000 -0.550000
v 0.442016 0.179313 -0.550000
v 0.552016 0.259232 -0.550000
v 0.687984 0.259232 -0.550000
v 0.797984 0.179313 -0.550000
v 0.620000 0.050000 0.350000
v 0.620000 0.050000 -0.550000
v -0.460000 0.050000 0.350000
v -0.490557 -0.044046 0.350000
v -0.570557 -0.102169 0.350000
v -0.669443 -0.102169 0.350000
v -0.749443 -0.044046 0.350000
v -0.780000 0.050000 0.350000
v -0.749443 0.144046 0.350000
v -0.669443 0.202169 0.350000
v -0.570557 0.202169 0.350000
v -0.490557 0.144046 0.350000
v -0.400000 0.050000 -0.550000
v -0.442016 -0.079313 -0.550000
v -0.552016 -0.159232 -0.550000
v -0.687984 -0.159232 -0.550000
v -0.797984 -0.079313 -0.550000
v -0.840000 0.050000 -0.550000
v -0.797984 0.179313 -0.550000
v -0.687984 0.259232 -0.550000
v -0.552016 0.259232 -0.550000
v -0.442016 0.179313 -0.550000
v -0.620000 0.050000 0.350000
v -0.620000 0.050000 -0.550000
vt 1.000000 0.700327
vt 0.500000 0.700327
vt 1.000000 0.299673
vt 0.500000 0.299673
vt 0.750000 0.435329
vt 0.750000 0.564671
vt 0.250000 0.435329
vt 0.250000 0.564671
vt 0.389334 0.500000
vt 0.610666 0.500000
vt 0.110666 0.500000
vt 0.889334 0.500000
vt 0.924228 0.577136
vt 0.818329 0.536687
vt 0.818329 0.645129
vt 0.681671 0.645129
vt 0.500000 1.000000
vt 0.318329 0.645129
vt 0.181671 0.645129
vt 0.181671 0.536687
vt 0.075772 0.577136
vt 1.000000 0.500000
vt 0.681671 0.536687
vt 0.575772 0.577136
vt 0.818329 0.463313
vt 0.750000 0.500000
vt 0.075772 0.422864
vt 0.924228 0.422864
vt 0.250000 0.500000
vt 0.181671 0.463313
vt 0.424228 0.577136
vt 0.318329 0.536687
vt 0.575772 0.422864
vt 0.681671 0.463313
vt 0.681671 0.354871
vt 0.818329 0.354871
vt 0.500000 0.000000
vt 0.181671 0.354871
vt 0.318329 0.354871
vt 0.318329 0.463313
vt 0.424228 0.422864
vt 0.500000 0.500000
vt 0.567130 0.481405
vt 0.569537 0.516934
vt 0.576671 0.542791
vt 0.587573 0.548214
vt 0.598630 0.523224
vt 0.603518 0.472534
vt 0.598630 0.425315
vt 0.587573 0.406632
vt 0.576671 0.416763
vt 0.569537 0.445117
vt 0.407735 0.484162
vt 0.403955 0.525991
vt 0.392666 0.556929
vt 0.375291 0.564161
vt 0.357743 0.535630
vt 0.350076 0.476639
vt 0.357743 0.420786
vt 0.375291 0.397773
vt 0.392666 0.408890
vt 0.403955 0.441765
vt 0.581793 0.477682
vt 0.384511 0.480820
vt 0.896482 0.472534
vt 0.901370 0.523224
vt 0.912427 0.548214
vt 0.923329 0.542791
vt 0.930463 0.516934
vt 0.932870 0.481405
vt 0.930463 0.445117
vt 0.923329 0.416763
vt 0.912427 0.406632
vt 0.901370 0.425315
vt 0.149924 0.476639
vt 0.142257 0.535630
vt 0.124709 0.564161
vt 0.107334 0.556929
vt 0.096045 0.525991
vt 0.092265 0.484162
vt 0.096045 0.441765
vt 0.107334 0.408890
vt 0.124709 0.397773
vt 0.142257 0.420786
vt 0.918207 0.477682
vt 0.115489 0.480820
vn -0.327865 -0.935566 0.131231
vn -0.673093 -0.629429 0.388284
vn -0.218157 -0.897183 0.384018
vn -0.392626 -0.872502 0.290834
vn -0.126509 -0.989626 0.068085
vn 0.000000 -0.965600 0.260032
vn 0.126509 -0.989626 0.068085
vn 0.000000 -0.991992 0.126302
vn -0.126509 -0.989626 -0.068085
vn 0.126509 -0.989626 -0.068085
vn 0.000000 -0.965600 -0.260032
vn 0.000000 -0.991992 -0.126302
vn -0.327865 -0.935566 -0.131231
vn -0.218157 -0.897183 -0.384018
vn -0.673093 -0.629429 -0.388284
vn -0.392626 -0.872502 -0.290834
vn -0.486613 -0.873618 0.000000
vn -0.892770 -0.409475 -0.187865
vn -0.892770 -0.409475 0.187865
vn -0.762386 -0.647123 0.000000
vn 0.327865 -0.935566 0.131231
vn 0.218157 -0.897183 0.384018
vn 0.673093 -0.629429 0.388284
vn 0.392626 -0.872502 0.290834
vn -0.207454 -0.634525 0.744541
vn -0.737073 0.000000 0.675813
vn -0.207454 0.634525 0.744541
vn -0.458310 0.000000 0.888793
vn -0.892770 0.409475 0.187865
vn -0.892770 0.409475 -0.187865
vn -0.486613 0.873618 0.000000
vn -0.762386 0.647123 0.000000
vn -0.737073 0.000000 -0.675813
vn -0.207454 -0.634525 -0.744541
vn -0.207454 0.634525 -0.744541
vn -0.458310 0.000000 -0.888793
vn 0.218157 -0.897183 -0.384018
vn 0.327865 -0.935566 -0.131231
vn 0.673093 -0.629429 -0.388284
vn 0.392626 -0.872502 -0.290834
vn 0.327865 0.935566 0.131231
vn 0.673093 0.629429 0.388284
vn 0.218157 0.897183 0.384018
vn 0.392626 0.872502 0.290834
vn 0.126509 0.989626 0.068085
vn 0.000000 0.965600 0.260032
vn -0.126509 0.989626 0.068085
vn 0.000000 0.991992 0.126302
vn 0.126509 0.989626 -0.068085
vn -0.126509 0.989626 -0.068085
vn 0.000000 0.965600 -0.260032
vn 0.000000 0.991992 -0.126302
vn 0.327865 0.935566 -0.131231
vn 0.218157 0.897183 -0.384018
vn 0.673093 0.629429 -0.388284
vn 0.392626 0.872502 -0.290834
vn 0.486613 0.873618 0.000000
vn 0.892770 0.409475 -0.187865
vn 0.892770 0.409475 0.187865
vn 0.762386 0.647123 -0.000000
vn 0.207454 0.634525 0.744541
vn 0.737073 0.000000 0.675813
vn 0.207454 -0.634525 0.744541
vn 0.458310 0.000000 0.888793
vn -0.327865 0.935566 0.131231
vn -0.218157 0.897183 0.384018
vn -0.673093 0.629429 0.388284
vn -0.392626 0.872502 0.290834
vn -0.218157 0.897183 -0.384018
vn -0.327865 0.935566 -0.131231
vn -0.673093 0.629429 -0.388284
vn -0.392626 0.872502 -0.290834
vn 0.737073 0.000000 -0.675813
vn 0.207454 0.634525 -0.744541
vn 0.207454 -0.634525 -0.744541
vn 0.458310 0.000000 -0.888793
vn 0.892770 -0.409475 0.187865
vn 0.892770 -0.409475 -0.187865
vn 0.486613 -0.873618 0.000000
vn 0.762386 -0.647123 0.000000
vn 0.949151 -0.308398 0.063277
vn 0.949151 -0.308398 0.063277
vn 0.000000 0.000000 -1.000000
vn -0.000000 0.000000 1.000000
vn 0.586607 -0.807396 0.063277
vn 0.586607 -0.807396 0.063277
vn 0.000000 0.000000 -1.000000
vn 0.000000 0.000000 1.000000
vn 0.000000 -0.997996 0.063277
vn 0.000000 -0.997996 0.063277
vn 0.000000 -0.000000 -1.000000
vn 0.000000 0.000000 1.000000
vn -0.586607 -0.807396 0.063277
vn -0.586607 -0.807396 0.063277
vn 0.000000 0.000000 -1.000000
vn 0.000000 0.000000 1.000000
vn -0.949151 -0.308398 0.063277
vn -0.949151 -0.308398 0.063277
vn 0.000000 0.000000 -1.000000
vn 0.000000 0.000000 1.000000
vn -0.949151 0.308398 0.063277
vn -0.949151 0.308398 0.063277
vn -0.000000 0.000000 -1.000000
vn 0.000000 0.000000 1.000000
vn -0.586607 0.807396 0.063277
vn -0.586607 0.807396 0.063277
vn 0.000000 0.000000 -1.000000
vn 0.000000 0.000000 1.000000
vn 0.000000 0.997996 0.063277
vn -0.000000 0.997996 0.063277
vn 0.000000 0.000000 -1.000000
vn 0.000000 -0.000000 1.000000
vn 0.586607 0.807396 0.063277
vn 0.586607 0.807396 0.063277
vn 0.000000 0.000000 -1.000000
vn 0.000000 0.000000 1.000000
vn 0.949151 0.308398 0.063277
vn 0.949151 0.308398 0.063277
vn 0.000000 0.000000 -1.000000
vn 0.000000 0.000000 1.000000
vn 0.949151 -0.308398 0.063277
vn 0.949151 -0.308398 0.063277
vn 0.000000 0.000000 -1.000000
vn -0.000000 0.000000 1.000000
vn 0.586607 -0.807396 0.063277
vn 0.586607 -0.807396 0.063277
vn 0.000000 0.000000 -1.000000
vn 0.000000 0.000000 1.000000
vn 0.000000 -0.997996 0.063277
vn 0.000000 -0.997996 0.063277
vn 0.000000 -0.000000 -1.000000
vn 0.000000 0.000000 1.000000
vn -0.586607 -0.807396 0.063277
vn -0.586607 -0.807396 0.063277
vn 0.000000 0.000000 -1.000000
vn 0.000000 0.000000 1.000000
vn -0.949151 -0.308398 0.063277
vn -0.949151 -0.308398 0.063277
vn 0.000000 0.000000 -1.000000
vn 0.000000 0.000000 1.000000
vn -0.949151 0.308398 0.063277
vn -0.949151 0.308398 0.063277
vn -0.000000 0.000000 -1.000000
vn 0.000000 0.000000 1.000000
vn -0.586607 0.807396 0.063277
vn -0.586607 0.807396 0.063277
vn 0.000000 0.000000 -1.000000
vn 0.000000 0.000000 1.000000
vn 0.000000 0.997996 0.063277
vn -0.000000 0.997996 0.063277
vn 0.000000 0.000000 -1.000000
vn 0.000000 -0.000000 1.000000
vn 0.586607 0.807396 0.063277
vn 0.586607 0.807396 0.063277
vn 0.000000 0.000000 -1.000000
vn 0.000000 0.000000 1.000000
vn 0.949151 0.308398 0.063277
vn 0.949151 0.308398 0.063277
vn 0.000000 0.000000 -1.000000
vn 0.000000 0.000000 1.000000
f 1/1/1 15/15/1 13/13/1
f 12/12/2 13/13/2 14/14/2
f 6/6/3 14/14/3 15/15/3
f 13/13/4 15/15/4 14/14/4
f 1/1/5 17/17/5 15/15/5
f 6/6/6 15/15/6 16/16/6
f 2/2/7 16/16/7 17/17/7
f 15/15/8 17/17/8 16/16/8
f 1/1/9 19/19/9 17/17/9
f 2/2/10 17/17/10 18/18/10
f 8/8/11 18/18/11 19/19/11
f 17/17/12 19/19/12 18/18/12
f 1/1/13 21/21/13 19/19/13
f 8/8/14 19/19/14 20/20/14
f 11/11/15 20/20/15 21/21/15
f 19/19/16 21/21/16 20/20/16
f 1/1/17 13/13/17 21/21/17
f 11/11/18 21/21/18 22/22/18
f 12/12/19 22/22/19 13/13/19
f 21/21/20 13/13/20 22/22/20
f 2/2/21 24/24/21 16/16/21
f 6/6/22 16/16/22 23/23/22
f 10/10/23 23/23/23 24/24/23
f 16/16/24 24/24/24 23/23/24
f 6/6/25 26/26/25 14/14/25
f 12/12/26 14/14/26 25/25/26
f 5/5/27 25/25/27 26/26/27
f 14/14/28 26/26/28 25/25/28
f 12/12/29 28/28/29 22/22/29
f 11/11/30 22/22/30 27/27/30
f 3/3/31 27/27/31 28/28/31
f 22/22/32 28/28/32 27/27/32
f 11/11/33 30/30/33 20/20/33
f 8/8/34 20/20/34 29/29/34
f 7/7/35 29/29/35 30/30/35
f 20/20/36 30/30/36 29/29/36
f 8/8/37 32/32/37 18/18/37
f 2/2/38 18/18/38 31/31/38
f 9/9/39 31/31/39 32/32/39
f 18/18/40 32/32/40 31/31/40
f 4/4/41 35/35/41 33/33/41
f 10/10/42 33/33/42 34/34/42
f 5/5/43 34/34/43 35/35/43
f 33/33/44 35/35/44 34/34/44
f 4/4/45 37/37/45 35/35/45
f 5/5/46 35/35/46 36/36/46
f 3/3/47 36/36/47 37/37/47
f 35/35/48 37/37/48 36/36/48
f 4/4/49 39/39/49 37/37/49
f 3/3/50 37/37/50 38/38/50
f 7/7/51 38/38/51 39/39/51
f 37/37/52 39/39/52 38/38/52
f 4/4/53 41/41/53 39/39/53
f 7/7/54 39/39/54 40/40/54
f 9/9/55 40/40/55 41/41/55
f 39/39/56 41/41/56 40/40/56
f 4/4/57 33/33/57 41/41/57
f 9/9/58 41/41/58 42/42/58
f 10/10/59 42/42/59 33/33/59
f 41/41/60 33/33/60 42/42/60
f 5/5/61 26/26/61 34/34/61
f 10/10/62 34/34/62 23/23/62
f 6/6/63 23/23/63 26/26/63
f 34/34/64 26/26/64 23/23/64
f 3/3/65 28/28/65 36/36/65
f 5/5/66 36/36/66 25/25/66
f 12/12/67 25/25/67 28/28/67
f 36/36/68 28/28/68 25/25/68
f 7/7/69 30/30/69 38/38/69
f 3/3/70 38/38/70 27/27/70
f 11/11/71 27/27/71 30/30/71
f 38/38/72 30/30/72 27/27/72
f 9/9/73 32/32/73 40/40/73
f 7/7/74 40/40/74 29/29/74
f 8/8/75 29/29/75 32/32/75
f 40/40/76 32/32/76 29/29/76
f 10/10/77 24/24/77 42/42/77
f 9/9/78 42/42/78 31/31/78
f 2/2/79 31/31/79 24/24/79
f 42/42/80 24/24/80 31/31/80
f 43/43/81 54/54/81 53/53/81
f 43/43/82 44/44/82 54/54/82
f 63/63/83 43/43/83 44/44/83
f 64/64/84 54/54/84 53/53/84
f 44/44/85 55/55/85 54/54/85
f 44/44/86 45/45/86 55/55/86
f 63/63/87 44/44/87 45/45/87
f 64/64/88 55/55/88 54/54/88
f 45/45/89 56/56/89 55/55/89
f 45/45/90 46/46/90 56/56/90
f 63/63/91 45/45/91 46/46/91
f 64/64/92 56/56/92 55/55/92
f 46/46/93 57/57/93 56/56/93
f 46/46/94 47/47/94 57/57/94
f 63/63/95 46/46/95 47/47/95
f 64/64/96 57/57/96 56/56/96
f 47/47/97 58/58/97 57/57/97
f 47/47/98 48/48/98 58/58/98
f 63/63/99 47/47/99 48/48/99
f 64/64/100 58/58/100 57/57/100
f 48/48/101 59/59/101 58/58/101
f 48/48/102 49/49/102 59/59/102
f 63/63/103 48/48/103 49/49/103
f 64/64/104 59/59/104 58/58/104
f 49/49/105 60/60/105 59/59/105
f 49/49/106 50/50/106 60/60/106
f 63/63/107 49/49/107 50/50/107
f 64/64/108 60/60/108 59/59/108
f 50/50/109 61/61/109 60/60/109
f 50/50/110 51/51/110 61/61/110
f 63/63/111 50/50/111 51/51/111
f 64/64/112 61/61/112 60/60/112
f 51/51/113 62/62/113 61/61/113
f 51/51/114 52/52/114 62/62/114
f 63/63/115 51/51/115 52/52/115
f 64/64/116 62/62/116 61/61/116
f 52/52/117 53/53/117 62/62/117
f 52/52/118 43/43/118 53/53/118
f 63/63/119 52/52/119 43/43/119
f 64/64/120 53/53/120 62/62/120
f 65/65/121 76/76/121 75/75/121
f 65/65/122 66/66/122 76/76/122
f 85/85/123 65/65/123 66/66/123
f 86/86/124 76/76/124 75/75/124
f 66/66/125 77/77/125 76/76/125
f 66/66/126 67/67/126 77/77/126
f 85/85/127 66/66/127 67/67/127
f 86/86/128 77/77/128 76/76/128
f 67/67/129 78/78/129 77/77/129
f 67/67/130 68/68/130 78/78/130
f 85/85/131 67/67/131 68/68/131
f 86/86/132 78/78/132 77/77/132
f 68/68/133 79/79/133 78/78/133
f 68/68/134 69/69/134 79/79/134
f 85/85/135 68/68/135 69/69/135
f 86/86/136 79/79/136 78/78/136
f 69/69/137 80/80/137 79/79/137
f 69/69/138 70/70/138 80/80/138
f 85/85/139 69/69/139 70/70/139
f 86/86/140 80/80/140 79/79/140
f 70/70/141 81/81/141 80/80/141
f 70/70/142 71/71/142 81/81/142
f 85/85/143 70/70/143 71/71/143
f 86/86/144 81/81/144 80/80/144
f 71/71/145 82/82/145 81/81/145
f 71/71/146 72/72/146 82/82/146
f 85/85/147 71/71/147 72/72/147
f 86/86/148 82/82/148 81/81/148
f 72/72/149 83/83/149 82/82/149
f 72/72/150 73/73/150 83/83/150
f 85/85/151 72/72/151 73/73/151
f 86/86/152 83/83/152 82/82/152
f 73/73/153 84/84/153 83/83/153
f 73/73/154 74/74/154 84/84/154
f 85/85/155 73/73/155 74/74/155
f 86/86/156 84/84/156 83/83/156
f 74/74/157 75/75/157 84/84/157
f 74/74/158 65/65/158 75/75/158
f 85/85/159 74/74/159 65/65/159
f 86/86/160 75/75/160 84/84/160
