# pillar (stage: reactor) — generated by scripts/gen-assets.py (do not edit by hand)
v 0.420000 -1.300000 0.000000
v 0.210000 -1.300000 0.363731
v -0.210000 -1.300000 0.363731
v -0.420000 -1.300000 0.000000
v -0.210000 -1.300000 -0.363731
v 0.210000 -1.300000 -0.363731
v 0.500000 1.300000 0.000000
v 0.250000 1.300000 0.433013
v -0.250000 1.300000 0.433013
v -0.500000 1.300000 0.000000
v -0.250000 1.300000 -0.433013
v 0.250000 1.300000 -0.433013
v 0.000000 -1.300000 0.000000
v 0.000000 1.300000 0.000000
v 0.867601 -0.450000 0.369393
v 0.597102 -0.450000 0.499125
v 0.349501 -0.450000 0.329732
v 0.372399 -0.450000 0.030607
v 0.642898 -0.450000 -0.099125
v 0.890499 -0.450000 0.070268
v 0.917121 1.250000 0.403271
v 0.592522 1.250000 0.558950
v 0.295401 1.250000 0.355679
v 0.322879 1.250000 -0.003271
v 0.647478 1.250000 -0.158950
v 0.944599 1.250000 0.044321
v 0.620000 -0.450000 0.200000
v 0.620000 1.250000 0.200000
v -0.413034 0.150000 -0.126311
v -0.650238 0.150000 -0.162841
v -0.737204 0.150000 -0.386530
v -0.586966 0.150000 -0.573689
v -0.349762 0.150000 -0.537159
v -0.262796 0.150000 -0.313470
v -0.391293 1.250000 -0.070388
v -0.687797 1.250000 -0.116051
v -0.796505 1.250000 -0.395663
v -0.608707 1.250000 -0.629612
v -0.312203 1.250000 -0.583949
v -0.203495 1.250000 -0.304337
v -0.500000 0.150000 -0.350000
v -0.500000 1.250000 -0.350000
vt 0.500000 0.900531
vt 0.666667 0.900531
vt 0.833333 0.900531
vt 1.000000 0.900531
vt 0.166667 0.900531
vt 0.333333 0.900531
vt 0.500000 0.116875
vt 0.666667 0.116875
vt 0.833333 0.116875
vt 1.000000 0.116875
vt 0.166667 0.116875
vt 0.333333 0.116875
vt 0.500000 1.000000
vt 0.500000 0.000000
vt 0.564063 0.641730
vt 0.610813 0.666876
vt 0.620369 0.739572
vt 0.513052 0.779420
vt 0.475653 0.692637
vt 0.512533 0.648542
vt 0.565933 0.215066
vt 0.620361 0.183834
vt 0.639693 0.112769
vt 0.498388 0.080466
vt 0.461687 0.155965
vt 0.507462 0.206155
vt 0.549663 0.692417
vt 0.549663 0.152928
vt 0.047234 0.393602
vt 0.039054 0.429925
vt 0.076858 0.443248
vt 0.123180 0.442462
vt 0.158140 0.426829
vt 0.138959 0.388122
vt 0.028327 0.098021
vt 0.026603 0.162012
vt 0.073377 0.196842
vt 0.127686 0.194528
vt 0.171859 0.155065
vt 0.156198 0.090691
vt 0.097200 0.423290
vt 0.097200 0.144581
vn -0.865718 0.026637 -0.499823
vn -0.865718 0.026637 -0.499823
vn 0.000000 -1.000000 0.000000
vn 0.000000 1.000000 0.000000
vn -0.000000 0.026637 -0.999645
vn -0.000000 0.026637 -0.999645
vn 0.000000 -1.000000 0.000000
vn 0.000000 1.000000 -0.000000
vn 0.865718 0.026637 -0.499823
vn 0.865718 0.026637 -0.499823
vn 0.000000 -1.000000 0.000000
vn 0.000000 1.000000 0.000000
vn 0.865718 0.026637 0.499823
vn 0.865718 0.026637 0.499823
vn -0.000000 -1.000000 0.000000
vn 0.000000 1.000000 0.000000
vn 0.000000 0.026637 0.999645
vn 0.000000 0.026637 0.999645
vn 0.000000 -1.000000 -0.000000
vn 0.000000 1.000000 0.000000
vn -0.865718 0.026637 0.499823
vn -0.865718 0.026637 0.499823
vn 0.000000 -1.000000 0.000000
vn -0.000000 1.000000 0.000000
vn -0.432239 0.030551 -0.901242
vn -0.432239 0.030551 -0.901242
vn 0.000000 -1.000000 0.000000
vn 0.000000 1.000000 -0.000000
vn 0.564379 0.030551 -0.824950
vn 0.564379 0.030551 -0.824950
vn 0.000000 -1.000000 0.000000
vn 0.000000 1.000000 0.000000
vn 0.996617 0.030551 0.076291
vn 0.996617 0.030551 0.076291
vn -0.000000 -1.000000 0.000000
vn 0.000000 1.000000 0.000000
vn 0.432239 0.030551 0.901242
vn 0.432239 0.030551 0.901242
vn 0.000000 -1.000000 -0.000000
vn 0.000000 1.000000 0.000000
vn -0.564379 0.030551 0.824950
vn -0.564379 0.030551 0.824950
vn 0.000000 -1.000000 0.000000
vn 0.000000 1.000000 0.000000
vn -0.996617 0.030551 -0.076291
vn -0.996617 0.030551 -0.076291
vn 0.000000 -1.000000 0.000000
vn -0.000000 1.000000 0.000000
vn 0.152039 0.047185 -0.987248
vn 0.152039 0.047185 -0.987248
vn 0.000000 -1.000000 0.000000
vn 0.000000 1.000000 -0.000000
vn 0.931001 0.047185 -0.361954
vn 0.931001 0.047185 -0.361954
vn -0.000000 -1.000000 0.000000
vn 0.000000 1.000000 0.000000
vn 0.778962 0.047185 0.625293
vn 0.778962 0.047185 0.625293
vn 0.000000 -1.000000 0.000000
vn 0.000000 1.000000 0.000000
vn -0.152039 0.047185 0.987248
vn -0.152039 0.047185 0.987248
vn 0.000000 -1.000000 -0.000000
vn 0.000000 1.000000 0.000000
vn -0.931001 0.047185 0.361954
vn -0.931001 0.047185 0.361954
vn 0.000000 -1.000000 0.000000
vn -0.000000 1.000000 0.000000
vn -0.778962 0.047185 -0.625293
vn -0.778962 0.047185 -0.625293
vn 0.000000 -1.000000 0.000000
vn 0.000000 1.000000 0.000000
f 1/1/1 8/8/1 7/7/1
f 1/1/2 2/2/2 8/8/2
f 13/13/3 1/1/3 2/2/3
f 14/14/4 8/8/4 7/7/4
f 2/2/5 9/9/5 8/8/5
f 2/2/6 3/3/6 9/9/6
f 13/13/7 2/2/7 3/3/7
f 14/14/8 9/9/8 8/8/8
f 3/3/9 10/10/9 9/9/9
f 3/3/10 4/4/10 10/10/10
f 13/13/11 3/3/11 4/4/11
f 14/14/12 10/10/12 9/9/12
f 4/4/13 11/11/13 10/10/13
f 4/4/14 5/5/14 11/11/14
f 13/13/15 4/4/15 5/5/15
f 14/14/16 11/11/16 10/10/16
f 5/5/17 12/12/17 11/11/17
f 5/5/18 6/6/18 12/12/18
f 13/13/19 5/5/19 6/6/19
f 14/14/20 12/12/20 11/11/20
f 6/6/21 7/7/21 12/12/21
f 6/6/22 1/1/22 7/7/22
f 13/13/23 6/6/23 1/1/23
f 14/14/24 7/7/24 12/12/24
f 15/15/25 22/22/25 21/21/25
f 15/15/26 16/16/26 22/22/26
f 27/27/27 15/15/27 16/16/27
f 28/28/28 22/22/28 21/21/28
f 16/16/29 23/23/29 22/22/29
f 16/16/30 17/17/30 23/23/30
f 27/27/31 16/16/31 17/17/31
f 28/28/32 23/23/32 22/22/32
f 17/17/33 24/24/33 23/23/33
f 17/17/34 18/18/34 24/24/34
f 27/27/35 17/17/35 18/18/35
f 28/28/36 24/24/36 23/23/36
f 18/18/37 25/25/37 24/24/37
f 18/18/38 19/19/38 25/25/38
f 27/27/39 18/18/39 19/19/39
f 28/28/40 25/25/40 24/24/40
f 19/19/41 26/26/41 25/25/41
f 19/19/42 20/20/42 26/26/42
f 27/27/43 19/19/43 20/20/43
f 28/28/44 26/26/44 25/25/44
f 20/20/45 21/21/45 26/26/45
f 20/20/46 15/15/46 21/21/46
f 27/27/47 20/20/47 15/15/47
f 28/28/48 21/21/48 26/26/48
f 29/29/49 36/36/49 35/35/49
f 29/29/50 30/30/50 36/36/50
f 41/41/51 29/29/51 30/30/51
f 42/42/52 36/36/52 35/35/52
f 30/30/53 37/37/53 36/36/53
f 30/30/54 31/31/54 37/37/54
f 41/41/55 30/30/55 31/31/55
f 42/42/56 37/37/56 36/36/56
f 31/31/57 38/38/57 37/37/57
f 31/31/58 32/32/58 38/38/58
f 41/41/59 31/31/59 32/32/59
f 42/42/60 38/38/60 37/37/60
f 32/32/61 39/39/61 38/38/61
f 32/32/62 33/33/62 39/39/62
f 41/41/63 32/32/63 33/33/63
f 42/42/64 39/39/64 38/38/64
f 33/33/65 40/40/65 39/39/65
f 33/33/66 34/34/66 40/40/66
f 41/41/67 33/33/67 34/34/67
f 42/42/68 40/40/68 39/39/68
f 34/34/69 35/35/69 40/40/69
f 34/34/70 29/29/70 35/35/70
f 41/41/71 34/34/71 29/29/71
f 42/42/72 35/35/72 40/40/72
