# rock (stage: hull) — generated by scripts/gen-assets.py (do not edit by hand)
v -0.522461 -0.845360 0.000000
v 0.488185 -0.789899 0.000000
v -0.468875 0.758655 0.000000
v 0.538704 0.871641 0.000000
v 0.000000 0.534824 0.865364
v 0.000000 -0.496744 0.803749
v 0.000000 0.576540 -0.932861
v 0.000000 -0.513125 -0.830253
v 0.853656 -0.000000 -0.527589
v 0.935818 -0.000000 0.578368
v -0.850799 -0.000000 -0.525823
v -0.917921 -0.000000 0.567307
v -0.851711 -0.526387 0.325325
v -0.499655 -0.308804 0.808459
v -0.334688 -0.876224 0.541536
v 0.304225 -0.796471 0.492246
v 0.000000 -0.789065 0.000000
v 0.320560 -0.839237 -0.518677
v -0.292307 -0.765270 -0.472963
v -0.510715 -0.315639 -0.826354
v -0.803826 -0.496792 -0.307034
v -1.083884 -0.000000 0.000000
v 0.504744 -0.311949 0.816693
v 0.738560 -0.456455 0.282105
v -0.461225 0.285053 0.746278
v 0.000000 -0.000000 0.827542
v -0.782695 0.483732 -0.298963
v -0.736462 0.455158 0.281303
v 0.000000 -0.000000 -1.157790
v -0.553650 0.342175 -0.895825
v 0.803125 -0.496358 -0.306766
v 0.538414 -0.332758 -0.871172
v 0.911897 0.563583 0.348314
v 0.544098 0.336271 0.880370
v 0.311636 0.815875 0.504238
v -0.288627 0.755636 0.467009
v 0.000000 0.910304 0.000000
v -0.326798 0.855567 -0.528770
v 0.307064 0.803903 -0.496839
v 0.499474 0.308692 -0.808166
v 0.841746 0.520228 -0.321518
v 1.145020 -0.000000 0.000000
v -0.770399 -0.779577 0.178360
v -0.636343 -0.745044 0.460462
v -0.442693 -0.880173 0.265165
v -0.709123 -0.162241 0.700774
v -0.713547 -0.440996 0.609442
v -0.894136 -0.269372 0.449716
v -0.169506 -0.732154 0.740877
v -0.450703 -0.622857 0.729253
v -0.253055 -0.422475 0.839976
v -0.152111 -0.890475 0.246121
v -0.228429 -0.804104 0.000000
v 0.164840 -0.711999 0.720483
v 0.000000 -0.918252 0.567511
v 0.234160 -0.824277 0.000000
v 0.149762 -0.876723 0.242320
v 0.400581 -0.796446 0.239942
v -0.144856 -0.848004 -0.234383
v -0.409433 -0.814046 -0.245244
v 0.428373 -0.851702 -0.256588
v 0.148480 -0.869218 -0.240246
v -0.154221 -0.666130 -0.674067
v 0.000000 -0.843078 -0.521051
v 0.158838 -0.686073 -0.694247
v -0.561432 -0.657336 -0.406256
v -0.751766 -0.760723 -0.174047
v -0.257104 -0.429235 -0.853416
v -0.393938 -0.544409 -0.637405
v -0.823576 -0.248115 -0.414226
v -0.646859 -0.399781 -0.552484
v -0.746317 -0.170751 -0.737529
v -0.957904 -0.592017 0.000000
v -0.963572 -0.000000 -0.273731
v -0.994348 -0.274831 -0.169855
v -1.021384 -0.282304 0.174473
v -1.057213 -0.000000 0.300332
v 0.538509 -0.630497 0.389669
v 0.639094 -0.646708 0.147961
v 0.243395 -0.406347 0.807910
v 0.399352 -0.551890 0.646165
v 0.872558 -0.262871 0.438863
v 0.655801 -0.405308 0.560121
v 0.761953 -0.174328 0.752982
v -0.228481 -0.141209 0.826653
v 0.000000 -0.232702 0.819144
v -0.690890 0.158069 0.682755
v -0.477467 -0.000000 0.772558
v 0.000000 0.257243 0.905532
v -0.230520 0.142469 0.834030
v -0.250287 0.417853 0.830786
v -0.968723 0.267748 0.165478
v -0.853401 0.257100 0.429227
v -0.843021 0.253973 -0.424007
v -0.953559 0.263557 -0.162887
v -0.640024 0.647649 0.148176
v -0.809932 0.500566 0.000000
v -0.656757 0.664582 -0.152051
v -0.589733 -0.000000 -0.954209
v -0.764349 0.174876 -0.755350
v 0.000000 -0.294568 -1.036924
v -0.291507 -0.180162 -1.054684
v -0.287947 0.480726 -0.955793
v -0.298903 0.184732 -1.081441
v 0.000000 0.310534 -1.093125
v 0.445968 -0.616312 -0.721591
v 0.271469 -0.453217 -0.901098
v 0.659187 -0.667041 -0.152613
v 0.613420 -0.718205 -0.443875
v 0.722152 -0.165222 -0.713649
v 0.724935 -0.448035 -0.619168
v 0.882342 -0.265819 -0.443783
v 0.784003 0.793344 0.181510
v 0.633163 0.741321 0.458161
v 0.441086 0.876978 0.264203
v 0.781535 0.178808 0.772333
v 0.740359 0.457567 0.632342
v 0.943417 0.284219 0.474502
v 0.158476 0.684509 0.692665
v 0.444285 0.613987 0.718869
v 0.268575 0.448385 0.891491
v 0.150874 0.883233 0.244120
v 0.250856 0.883048 0.000000
v -0.154290 0.666429 0.674369
v 0.000000 0.799294 0.493991
v -0.242397 0.853274 0.000000
v -0.147943 0.866075 0.239377
v -0.393954 0.783270 0.235972
v 0.156859 0.918267 -0.253803
v 0.425314 0.845621 -0.254756
v -0.417636 0.830355 -0.250157
v -0.157133 0.919872 -0.254246
v 0.168855 0.729340 -0.738030
v 0.000000 0.905177 -0.559430
v -0.173224 0.748213 -0.757127
v 0.564173 0.660545 -0.408239
v 0.765679 0.774801 -0.177268
v 0.272315 0.454629 -0.903906
v 0.403269 0.557303 -0.652502
v 0.851334 0.256477 -0.428188
v 0.640378 0.395775 -0.546948
v 0.701865 0.160580 -0.693601
v 1.021658 0.631420 0.000000
v 1.021211 -0.000000 -0.290105
v 1.063759 0.294016 -0.181712
v 1.086324 0.300253 0.185566
v 1.057190 -0.000000 0.300325
v 0.260030 0.160707 0.940796
v 0.593669 -0.000000 0.960576
v 0.251310 -0.155318 0.909249
v -0.539839 0.632055 0.390631
v -0.392933 0.543021 0.635780
v -0.635719 0.392896 0.542969
v -0.455299 0.629207 -0.736689
v -0.608830 0.712831 -0.440554
v -0.724687 0.447881 -0.618956
v 0.569033 -0.000000 -0.920715
v 0.296058 0.182974 -1.071148
v 0.296052 -0.182970 -1.071126
v 0.951533 -0.262997 0.162541
v 0.956571 -0.264390 -0.163402
v 0.756295 -0.467416 0.000000
vt 1.000000 0.823792
vt 0.500000 0.823792
vt 1.000000 0.176208
vt 0.500000 0.176208
vt 0.750000 0.323792
vt 0.750000 0.676208
vt 0.250000 0.323792
vt 0.250000 0.676208
vt 0.411896 0.500000
vt 0.588104 0.500000
vt 0.088104 0.500000
vt 0.911896 0.500000
vt 0.941930 0.666667
vt 0.838104 0.600000
vt 0.838104 0.800000
vt 0.661896 0.800000
vt 0.500000 1.000000
vt 0.338104 0.800000
vt 0.161896 0.800000
vt 0.161896 0.600000
vt 0.058070 0.666667
vt 1.000000 0.500000
vt 0.661896 0.600000
vt 0.558070 0.666667
vt 0.838104 0.400000
vt 0.750000 0.500000
vt 0.058070 0.333333
vt 0.941930 0.333333
vt 0.250000 0.500000
vt 0.161896 0.400000
vt 0.441930 0.666667
vt 0.338104 0.600000
vt 0.558070 0.333333
vt 0.661896 0.400000
vt 0.661896 0.200000
vt 0.838104 0.200000
vt 0.500000 0.000000
vt 0.161896 0.200000
vt 0.338104 0.200000
vt 0.338104 0.400000
vt 0.441930 0.333333
vt 0.500000 0.500000
vt 0.963791 0.747730
vt 0.900306 0.741595
vt 0.914109 0.831209
vt 0.875942 0.551350
vt 0.887498 0.639840
vt 0.925832 0.583687
vt 0.785797 0.744056
vt 0.838104 0.700000
vt 0.796571 0.642859
vt 0.838104 0.900000
vt 1.000000 0.911896
vt 0.714203 0.744056
vt 0.750000 0.823792
vt 0.500000 0.911896
vt 0.661896 0.900000
vt 0.585891 0.831209
vt 0.161896 0.900000
vt 0.085891 0.831209
vt 0.414109 0.831209
vt 0.338104 0.900000
vt 0.214203 0.744056
vt 0.250000 0.823792
vt 0.285797 0.744056
vt 0.099694 0.741595
vt 0.036209 0.747730
vt 0.203429 0.642859
vt 0.161896 0.700000
vt 0.074168 0.583687
vt 0.112502 0.639840
vt 0.124058 0.551350
vt 1.000000 0.676208
vt 0.044052 0.500000
vt 0.026927 0.584668
vt 0.973073 0.584668
vt 0.955948 0.500000
vt 0.599694 0.741595
vt 0.536209 0.747730
vt 0.703429 0.642859
vt 0.661896 0.700000
vt 0.574168 0.583687
vt 0.612502 0.639840
vt 0.624058 0.551350
vt 0.792918 0.551943
vt 0.750000 0.588104
vt 0.875942 0.448650
vt 0.838104 0.500000
vt 0.750000 0.411896
vt 0.792918 0.448057
vt 0.796571 0.357141
vt 0.973073 0.415332
vt 0.925832 0.416313
vt 0.074168 0.416313
vt 0.026927 0.415332
vt 0.963791 0.252270
vt 1.000000 0.323792
vt 0.036209 0.252270
vt 0.161896 0.500000
vt 0.124058 0.448650
vt 0.250000 0.588104
vt 0.207082 0.551943
vt 0.203429 0.357141
vt 0.207082 0.448057
vt 0.250000 0.411896
vt 0.338104 0.700000
vt 0.296571 0.642859
vt 0.463791 0.747730
vt 0.400306 0.741595
vt 0.375942 0.551350
vt 0.387498 0.639840
vt 0.425832 0.583687
vt 0.536209 0.252270
vt 0.599694 0.258405
vt 0.585891 0.168791
vt 0.624058 0.448650
vt 0.612502 0.360160
vt 0.574168 0.416313
vt 0.714203 0.255944
vt 0.661896 0.300000
vt 0.703429 0.357141
vt 0.661896 0.100000
vt 0.500000 0.088104
vt 0.785797 0.255944
vt 0.750000 0.176208
vt 1.000000 0.088104
vt 0.838104 0.100000
vt 0.914109 0.168791
vt 0.338104 0.100000
vt 0.414109 0.168791
vt 0.085891 0.168791
vt 0.161896 0.100000
vt 0.285797 0.255944
vt 0.250000 0.176208
vt 0.214203 0.255944
vt 0.400306 0.258405
vt 0.463791 0.252270
vt 0.296571 0.357141
vt 0.338104 0.300000
vt 0.425832 0.416313
vt 0.387498 0.360160
vt 0.375942 0.448650
vt 0.500000 0.323792
vt 0.455948 0.500000
vt 0.473073 0.415332
vt 0.526927 0.415332
vt 0.544052 0.500000
vt 0.707082 0.448057
vt 0.661896 0.500000
vt 0.707082 0.551943
vt 0.900306 0.258405
vt 0.838104 0.300000
vt 0.887498 0.360160
vt 0.161896 0.300000
vt 0.099694 0.258405
vt 0.112502 0.360160
vt 0.338104 0.500000
vt 0.292918 0.448057
vt 0.292918 0.551943
vt 0.526927 0.584668
vt 0.473073 0.584668
vt 0.500000 0.676208
vn -0.283383 -0.958150 -0.040542
vn -0.762545 -0.490046 0.422351
vn -0.432823 -0.882965 0.181761
vn -0.347980 -0.896239 0.275074
vn -0.680405 -0.342826 0.647703
vn -0.574016 -0.246710 0.780795
vn -0.787412 -0.368970 0.493804
vn -0.747582 -0.196048 0.634575
vn 0.051070 -0.291858 0.955097
vn -0.282224 -0.651181 0.704495
vn -0.244664 -0.272796 0.930442
vn -0.171069 -0.341855 0.924051
vn -0.751975 -0.434039 0.496128
vn -0.553312 -0.283758 0.783152
vn -0.448380 -0.655519 0.607659
vn -0.613569 -0.467585 0.636315
vn 0.136946 -0.975998 -0.169331
vn -0.033624 -0.999058 0.027414
vn 0.061602 -0.935671 -0.347456
vn -0.054272 -0.947333 -0.315619
vn 0.076421 -0.308276 0.948222
vn 0.424860 -0.733273 0.530853
vn -0.143973 -0.741561 0.655255
vn 0.085126 -0.636546 0.766527
vn 0.134078 -0.990728 0.021919
vn -0.143715 -0.955693 -0.256898
vn 0.303768 -0.945668 0.115918
vn 0.302444 -0.947925 -0.099823
vn -0.122422 -0.992089 -0.027802
vn 0.383514 -0.921654 0.058922
vn 0.037916 -0.931962 -0.360567
vn 0.043909 -0.993329 -0.106632
vn 0.138682 -0.988376 -0.062288
vn 0.064289 -0.976476 0.205819
vn -0.112198 -0.958260 -0.262961
vn -0.131635 -0.981792 0.136955
vn 0.131315 -0.970312 0.203102
vn 0.058155 -0.995760 -0.071278
vn -0.144665 -0.962007 0.231547
vn 0.070906 -0.984742 0.158920
vn -0.090156 -0.665482 -0.740949
vn -0.297351 -0.759489 -0.578583
vn 0.013873 -0.747115 -0.664550
vn -0.090256 -0.695276 -0.713053
vn -0.063669 -0.957825 0.280210
vn 0.012657 -0.994976 -0.099314
vn -0.278055 -0.947683 -0.156788
vn -0.073101 -0.995859 -0.054050
vn -0.193200 -0.958118 -0.211383
vn -0.424542 -0.815637 -0.393065
vn -0.578530 -0.455159 -0.676855
vn -0.239203 -0.798947 -0.551784
vn -0.138889 -0.635395 -0.759594
vn -0.377148 -0.696607 -0.610326
vn -0.428819 -0.658109 -0.618876
vn -0.428249 -0.656288 -0.621199
vn -0.933488 -0.227213 -0.277444
vn -0.737787 -0.315770 -0.596624
vn -0.583232 -0.648500 -0.489172
vn -0.748382 -0.582006 -0.318109
vn -0.419025 -0.658367 -0.625276
vn -0.551214 -0.680325 -0.483033
vn -0.598732 -0.536329 -0.594870
vn -0.529779 -0.544780 -0.650038
vn -0.300486 -0.951445 -0.066790
vn -0.760318 -0.405606 -0.507347
vn -0.808236 -0.467440 0.358126
vn -0.668692 -0.739754 -0.074932
vn -0.878141 -0.273040 -0.392833
vn -0.914353 -0.049506 -0.401881
vn -0.764523 -0.305406 -0.567655
vn -0.806323 -0.127967 -0.577467
vn -0.853701 -0.269820 0.445412
vn -0.848292 -0.337507 0.408032
vn -0.982656 -0.163620 0.087262
vn -0.862431 -0.293359 0.412495
vn -0.783977 -0.360656 -0.505279
vn -0.961368 -0.263018 -0.081193
vn -0.856038 -0.375549 0.355192
vn -0.984406 -0.156313 -0.080687
vn 0.573120 -0.797738 0.187480
vn 0.628966 -0.739418 0.240133
vn 0.714596 -0.612220 0.338437
vn 0.587040 -0.753950 0.294861
vn 0.093678 -0.295977 0.950590
vn 0.200188 -0.624479 0.754951
vn 0.578895 -0.583556 0.569511
vn 0.493487 -0.354062 0.794424
vn 0.817429 -0.410936 0.403661
vn 0.638618 -0.700318 0.318940
vn 0.497160 -0.679249 0.539864
vn 0.649837 -0.640432 0.409340
vn 0.633604 -0.573334 0.519456
vn 0.545728 -0.631317 0.551017
vn 0.714192 -0.619134 0.326501
vn 0.549909 -0.666969 0.502744
vn 0.124847 -0.057748 0.990494
vn -0.101188 0.055889 0.993296
vn 0.018401 -0.036062 0.999180
vn 0.049974 0.042897 0.997829
vn -0.493922 0.076839 0.866104
vn -0.318622 0.105005 0.942048
vn -0.377541 0.133651 0.916297
vn -0.340969 0.072137 0.937303
vn -0.199565 0.140336 0.969783
vn -0.150641 -0.286825 0.946065
vn -0.363628 -0.015127 0.931421
vn -0.291840 -0.009680 0.956418
vn -0.142773 0.124410 0.981905
vn -0.296545 0.104415 0.949294
vn 0.012122 -0.025907 0.999591
vn -0.226802 -0.026947 0.973568
vn -0.802095 0.426043 0.418487
vn -0.933040 0.350100 0.082856
vn -0.686805 0.649375 0.326515
vn -0.809100 0.454835 0.372133
vn -0.896508 0.188235 -0.401050
vn -0.830975 0.417980 -0.367114
vn -0.897000 0.199887 -0.394254
vn -0.900124 0.197498 -0.388294
vn -0.495161 0.865435 0.076408
vn -0.758757 0.582184 0.292147
vn -0.773734 0.624637 -0.105662
vn -0.690960 0.718559 0.079037
vn -0.906686 0.419156 -0.047219
vn -0.816298 0.567759 -0.106337
vn -0.684141 0.670543 0.286921
vn -0.840100 0.540504 -0.045693
vn -0.915389 -0.068216 -0.396750
vn -0.537430 -0.428706 -0.726209
vn -0.646191 0.194078 -0.738086
vn -0.780278 -0.072738 -0.621188
vn -0.156762 -0.678578 -0.717605
vn -0.092222 -0.377985 -0.921207
vn -0.351593 -0.617285 -0.703805
vn -0.202579 -0.632257 -0.747805
vn -0.102952 0.513317 -0.852001
vn -0.384903 0.372678 -0.844370
vn -0.123127 0.202312 -0.971550
vn -0.198950 0.389167 -0.899426
vn -0.510464 -0.429539 -0.744932
vn -0.290512 -0.075833 -0.953862
vn -0.495117 0.196609 -0.846288
vn -0.359023 -0.075492 -0.930271
vn -0.055216 -0.648053 -0.759591
vn 0.102980 -0.700617 -0.706067
vn 0.323964 -0.521890 -0.789100
vn 0.098375 -0.687079 -0.719892
vn 0.610717 -0.790392 0.048014
vn 0.761806 -0.647778 -0.005915
vn 0.419343 -0.882134 -0.214452
vn 0.612428 -0.789387 0.042433
vn 0.844773 -0.075845 -0.529722
vn 0.738703 -0.207023 -0.641451
vn 0.843451 -0.457333 -0.281845
vn 0.816389 -0.175744 -0.550112
vn 0.435977 -0.727493 -0.529790
vn 0.808281 -0.516746 -0.282233
vn 0.553365 -0.522573 -0.648618
vn 0.568546 -0.599905 -0.562912
vn 0.253110 0.964600 0.074038
vn 0.599411 0.661188 0.451152
vn 0.259729 0.893059 0.367406
vn 0.298159 0.895315 0.330926
vn 0.840588 0.165957 0.515626
vn 0.594200 0.429337 0.680144
vn 0.741455 0.343912 0.576167
vn 0.748104 0.382737 0.542082
vn 0.147498 0.676402 0.721613
vn 0.129473 0.760954 0.635756
vn 0.257086 0.553198 0.792388
vn 0.096890 0.667124 0.738619
vn 0.589595 0.572486 0.569770
vn 0.491600 0.563018 0.664334
vn 0.262234 0.778512 0.570221
vn 0.495972 0.582608 0.643878
vn 0.039597 0.999200 -0.005551
vn 0.003679 0.968611 0.248552
vn 0.107912 0.993211 0.043443
vn 0.021008 0.999749 0.007846
vn -0.081238 0.788857 0.609184
vn -0.174926 0.858228 0.482542
vn -0.062417 0.841811 0.536151
vn -0.080145 0.834064 0.545816
vn -0.385363 0.922395 0.026133
vn -0.228852 0.972708 0.038283
vn -0.311859 0.916168 0.251754
vn -0.319035 0.944742 0.075363
vn -0.060267 0.956639 0.284973
vn -0.171721 0.923844 0.342088
vn -0.059020 0.987525 0.145982
vn -0.059455 0.956552 0.285435
vn 0.039317 0.992135 -0.118835
vn 0.107499 0.989414 0.097483
vn 0.249708 0.926461 -0.281631
vn 0.261156 0.964582 0.037130
vn -0.379028 0.907232 0.182394
vn -0.325201 0.945423 -0.020474
vn -0.225469 0.958328 0.175415
vn -0.319920 0.937306 0.138233
vn 0.078042 0.750507 -0.656238
vn 0.361248 0.812190 -0.458090
vn -0.175682 0.840149 -0.513114
vn 0.078076 0.746335 -0.660975
vn 0.005060 0.999392 0.034486
vn -0.160715 0.978420 -0.129862
vn 0.345291 0.913223 -0.216329
vn 0.005171 0.998954 -0.045439
vn 0.243966 0.947784 -0.205393
vn 0.547450 0.737970 -0.394586
vn 0.486555 0.536215 -0.689737
vn 0.292468 0.730856 -0.616694
vn 0.337203 0.576433 -0.744325
vn 0.603012 0.577761 -0.550062
vn 0.618355 0.577625 -0.532904
vn 0.615044 0.564218 -0.550799
vn 0.815491 0.215556 -0.537131
vn 0.614906 0.314778 -0.723052
vn 0.674945 0.509341 -0.533874
vn 0.652914 0.516272 -0.554227
vn 0.536816 0.590077 -0.603024
vn 0.625922 0.573280 -0.528746
vn 0.481020 0.511477 -0.712047
vn 0.612506 0.497919 -0.613932
vn 0.347463 0.935362 -0.066088
vn 0.664239 0.508794 -0.547646
vn 0.693359 0.634253 0.342018
vn 0.524255 0.848627 -0.070635
vn 0.796164 0.224914 -0.561727
vn 0.919681 0.011608 -0.392494
vn 0.703143 0.288412 -0.649929
vn 0.740174 0.135683 -0.658584
vn 0.909774 0.120806 0.397136
vn 0.850374 0.293279 0.436866
vn 0.959702 0.014150 0.280664
vn 0.891349 0.083787 0.445507
vn 0.740673 0.387872 -0.548598
vn 0.971310 0.229166 -0.063566
vn 0.866668 0.361739 0.343558
vn 0.985569 0.157024 -0.063217
vn -0.050119 0.143037 0.988447
vn 0.106670 0.164885 0.980528
vn -0.231066 -0.282285 0.931088
vn -0.069979 0.170533 0.982864
vn 0.744162 -0.077624 0.663474
vn 0.443065 -0.476542 0.759342
vn 0.541265 0.269747 0.796410
vn 0.741584 -0.077639 0.666353
vn 0.004553 -0.058203 0.998294
vn -0.327995 -0.034073 0.944065
vn 0.104540 -0.375125 0.921061
vn -0.214768 -0.359778 0.907984
vn 0.058003 0.239701 0.969113
vn 0.061299 -0.432404 0.899594
vn -0.354256 -0.083206 0.931439
vn -0.104886 -0.095917 0.989848
vn -0.500262 0.863137 0.068794
vn -0.494943 0.806996 0.322162
vn -0.726375 0.598097 0.338614
vn -0.537276 0.797889 0.273327
vn -0.375589 0.593149 0.712115
vn -0.560662 0.446994 0.697033
vn -0.445892 0.680398 0.581583
vn -0.418274 0.593962 0.687209
vn -0.639923 0.482008 0.598470
vn -0.626414 0.668841 0.400320
vn -0.484982 0.528642 0.696656
vn -0.625381 0.502365 0.597100
vn -0.497737 0.675759 0.543698
vn -0.547202 0.447768 0.707159
vn -0.725365 0.552414 0.410713
vn -0.579707 0.590229 0.561755
vn -0.148919 0.629971 -0.762207
vn -0.351665 0.733683 -0.581414
vn -0.444932 0.546017 -0.709860
vn -0.323938 0.649706 -0.687711
vn -0.527424 0.839206 0.132501
vn -0.806460 0.590237 -0.035261
vn -0.468452 0.880463 -0.073058
vn -0.556207 0.829749 0.046367
vn -0.956684 0.133099 -0.258922
vn -0.705932 0.395956 -0.587264
vn -0.913510 0.351406 -0.204972
vn -0.918537 0.275230 -0.283793
vn -0.511204 0.720538 -0.468503
vn -0.836818 0.506259 -0.208418
vn -0.613480 0.533183 -0.582544
vn -0.623645 0.605561 -0.494330
vn 0.775600 0.086768 -0.625232
vn 0.651703 0.385096 -0.653440
vn 0.724796 -0.166238 -0.668607
vn 0.832508 0.085521 -0.547373
vn 0.306595 0.491206 -0.815301
vn 0.158481 0.201287 -0.966627
vn 0.580012 0.463224 -0.670082
vn 0.284053 0.520543 -0.805201
vn -0.037965 -0.686578 -0.726065
vn 0.324950 -0.524628 -0.786875
vn 0.036188 -0.379354 -0.924543
vn 0.105467 -0.536413 -0.837340
vn 0.630374 0.387332 -0.672757
vn 0.280905 -0.000062 -0.959735
vn 0.561396 -0.172171 -0.809439
vn 0.482618 -0.000060 -0.875831
vn 0.841070 -0.397246 0.367145
vn 0.847123 -0.470114 0.247741
vn 0.718762 -0.664121 0.205731
vn 0.849381 -0.468524 0.242974
vn 0.813545 -0.093171 -0.573990
vn 0.870983 -0.435011 -0.228370
vn 0.850104 -0.381705 -0.362801
vn 0.910472 -0.337290 -0.239323
vn 0.635026 -0.766712 0.094315
vn 0.861516 -0.502356 0.073678
vn 0.825251 -0.536448 0.176593
vn 0.866326 -0.491095 0.091133
vn 0.809814 -0.586494 0.015021
vn 0.767779 -0.616254 0.175349
vn 0.692334 -0.718034 0.071422
vn 0.717477 -0.696440 0.014064
f 1/1/1 45/45/1 43/43/1
f 13/13/2 43/43/2 44/44/2
f 15/15/3 44/44/3 45/45/3
f 43/43/4 45/45/4 44/44/4
f 12/12/5 48/48/5 46/46/5
f 14/14/6 46/46/6 47/47/6
f 13/13/7 47/47/7 48/48/7
f 46/46/8 48/48/8 47/47/8
f 6/6/9 51/51/9 49/49/9
f 15/15/10 49/49/10 50/50/10
f 14/14/11 50/50/11 51/51/11
f 49/49/12 51/51/12 50/50/12
f 13/13/13 44/44/13 47/47/13
f 14/14/14 47/47/14 50/50/14
f 15/15/15 50/50/15 44/44/15
f 47/47/16 44/44/16 50/50/16
f 1/1/17 53/53/17 45/45/17
f 15/15/18 45/45/18 52/52/18
f 17/17/19 52/52/19 53/53/19
f 45/45/20 53/53/20 52/52/20
f 6/6/21 49/49/21 54/54/21
f 16/16/22 54/54/22 55/55/22
f 15/15/23 55/55/23 49/49/23
f 54/54/24 49/49/24 55/55/24
f 2/2/25 58/58/25 56/56/25
f 17/17/26 56/56/26 57/57/26
f 16/16/27 57/57/27 58/58/27
f 56/56/28 58/58/28 57/57/28
f 15/15/29 52/52/29 55/55/29
f 16/16/30 55/55/30 57/57/30
f 17/17/31 57/57/31 52/52/31
f 55/55/32 52/52/32 57/57/32
f 1/1/33 60/60/33 53/53/33
f 17/17/34 53/53/34 59/59/34
f 19/19/35 59/59/35 60/60/35
f 53/53/36 60/60/36 59/59/36
f 2/2/37 56/56/37 61/61/37
f 18/18/38 61/61/38 62/62/38
f 17/17/39 62/62/39 56/56/39
f 61/61/40 56/56/40 62/62/40
f 8/8/41 65/65/41 63/63/41
f 19/19/42 63/63/42 64/64/42
f 18/18/43 64/64/43 65/65/43
f 63/63/44 65/65/44 64/64/44
f 17/17/45 59/59/45 62/62/45
f 18/18/46 62/62/46 64/64/46
f 19/19/47 64/64/47 59/59/47
f 62/62/48 59/59/48 64/64/48
f 1/1/49 67/67/49 60/60/49
f 19/19/50 60/60/50 66/66/50
f 21/21/51 66/66/51 67/67/51
f 60/60/52 67/67/52 66/66/52
f 8/8/53 63/63/53 68/68/53
f 20/20/54 68/68/54 69/69/54
f 19/19/55 69/69/55 63/63/55
f 68/68/56 63/63/56 69/69/56
f 11/11/57 72/72/57 70/70/57
f 21/21/58 70/70/58 71/71/58
f 20/20/59 71/71/59 72/72/59
f 70/70/60 72/72/60 71/71/60
f 19/19/61 66/66/61 69/69/61
f 20/20/62 69/69/62 71/71/62
f 21/21/63 71/71/63 66/66/63
f 69/69/64 66/66/64 71/71/64
f 1/1/65 43/43/65 67/67/65
f 21/21/66 67/67/66 73/73/66
f 13/13/67 73/73/67 43/43/67
f 67/67/68 43/43/68 73/73/68
f 11/11/69 70/70/69 74/74/69
f 22/22/70 74/74/70 75/75/70
f 21/21/71 75/75/71 70/70/71
f 74/74/72 70/70/72 75/75/72
f 12/12/73 77/77/73 48/48/73
f 13/13/74 48/48/74 76/76/74
f 22/22/75 76/76/75 77/77/75
f 48/48/76 77/77/76 76/76/76
f 21/21/77 73/73/77 75/75/77
f 22/22/78 75/75/78 76/76/78
f 13/13/79 76/76/79 73/73/79
f 75/75/80 73/73/80 76/76/80
f 2/2/81 79/79/81 58/58/81
f 16/16/82 58/58/82 78/78/82
f 24/24/83 78/78/83 79/79/83
f 58/58/84 79/79/84 78/78/84
f 6/6/85 54/54/85 80/80/85
f 23/23/86 80/80/86 81/81/86
f 16/16/87 81/81/87 54/54/87
f 80/80/88 54/54/88 81/81/88
f 10/10/89 84/84/89 82/82/89
f 24/24/90 82/82/90 83/83/90
f 23/23/91 83/83/91 84/84/91
f 82/82/92 84/84/92 83/83/92
f 16/16/93 78/78/93 81/81/93
f 23/23/94 81/81/94 83/83/94
f 24/24/95 83/83/95 78/78/95
f 81/81/96 78/78/96 83/83/96
f 6/6/97 86/86/97 51/51/97
f 14/14/98 51/51/98 85/85/98
f 26/26/99 85/85/99 86/86/99
f 51/51/100 86/86/100 85/85/100
f 12/12/101 46/46/101 87/87/101
f 25/25/102 87/87/102 88/88/102
f 14/14/103 88/88/103 46/46/103
f 87/87/104 46/46/104 88/88/104
f 5/5/105 91/91/105 89/89/105
f 26/26/106 89/89/106 90/90/106
f 25/25/107 90/90/107 91/91/107
f 89/89/108 91/91/108 90/90/108
f 14/14/109 85/85/109 88/88/109
f 25/25/110 88/88/110 90/90/110
f 26/26/111 90/90/111 85/85/111
f 88/88/112 85/85/112 90/90/112
f 12/12/113 93/93/113 77/77/113
f 22/22/114 77/77/114 92/92/114
f 28/28/115 92/92/115 93/93/115
f 77/77/116 93/93/116 92/92/116
f 11/11/117 74/74/117 94/94/117
f 27/27/118 94/94/118 95/95/118
f 22/22/119 95/95/119 74/74/119
f 94/94/120 74/74/120 95/95/120
f 3/3/121 98/98/121 96/96/121
f 28/28/122 96/96/122 97/97/122
f 27/27/123 97/97/123 98/98/123
f 96/96/124 98/98/124 97/97/124
f 22/22/125 92/92/125 95/95/125
f 27/27/126 95/95/126 97/97/126
f 28/28/127 97/97/127 92/92/127
f 95/95/128 92/92/128 97/97/128
f 11/11/129 100/100/129 72/72/129
f 20/20/130 72/72/130 99/99/130
f 30/30/131 99/99/131 100/100/131
f 72/72/132 100/100/132 99/99/132
f 8/8/133 68/68/133 101/101/133
f 29/29/134 101/101/134 102/102/134
f 20/20/135 102/102/135 68/68/135
f 101/101/136 68/68/136 102/102/136
f 7/7/137 105/105/137 103/103/137
f 30/30/138 103/103/138 104/104/138
f 29/29/139 104/104/139 105/105/139
f 103/103/140 105/105/140 104/104/140
f 20/20/141 99/99/141 102/102/141
f 29/29/142 102/102/142 104/104/142
f 30/30/143 104/104/143 99/99/143
f 102/102/144 99/99/144 104/104/144
f 8/8/145 107/107/145 65/65/145
f 18/18/146 65/65/146 106/106/146
f 32/32/147 106/106/147 107/107/147
f 65/65/148 107/107/148 106/106/148
f 2/2/149 61/61/149 108/108/149
f 31/31/150 108/108/150 109/109/150
f 18/18/151 109/109/151 61/61/151
f 108/108/152 61/61/152 109/109/152
f 9/9/153 112/112/153 110/110/153
f 32/32/154 110/110/154 111/111/154
f 31/31/155 111/111/155 112/112/155
f 110/110/156 112/112/156 111/111/156
f 18/18/157 106/106/157 109/109/157
f 31/31/158 109/109/158 111/111/158
f 32/32/159 111/111/159 106/106/159
f 109/109/160 106/106/160 111/111/160
f 4/4/161 115/115/161 113/113/161
f 33/33/162 113/113/162 114/114/162
f 35/35/163 114/114/163 115/115/163
f 113/113/164 115/115/164 114/114/164
f 10/10/165 118/118/165 116/116/165
f 34/34/166 116/116/166 117/117/166
f 33/33/167 117/117/167 118/118/167
f 116/116/168 118/118/168 117/117/168
f 5/5/169 121/121/169 119/119/169
f 35/35/170 119/119/170 120/120/170
f 34/34/171 120/120/171 121/121/171
f 119/119/172 121/121/172 120/120/172
f 33/33/173 114/114/173 117/117/173
f 34/34/174 117/117/174 120/120/174
f 35/35/175 120/120/175 114/114/175
f 117/117/176 114/114/176 120/120/176
f 4/4/177 123/123/177 115/115/177
f 35/35/178 115/115/178 122/122/178
f 37/37/179 122/122/179 123/123/179
f 115/115/180 123/123/180 122/122/180
f 5/5/181 119/119/181 124/124/181
f 36/36/182 124/124/182 125/125/182
f 35/35/183 125/125/183 119/119/183
f 124/124/184 119/119/184 125/125/184
f 3/3/185 128/128/185 126/126/185
f 37/37/186 126/126/186 127/127/186
f 36/36/187 127/127/187 128/128/187
f 126/126/188 128/128/188 127/127/188
f 35/35/189 122/122/189 125/125/189
f 36/36/190 125/125/190 127/127/190
f 37/37/191 127/127/191 122/122/191
f 125/125/192 122/122/192 127/127/192
f 4/4/193 130/130/193 123/123/193
f 37/37/194 123/123/194 129/129/194
f 39/39/195 129/129/195 130/130/195
f 123/123/196 130/130/196 129/129/196
f 3/3/197 126/126/197 131/131/197
f 38/38/198 131/131/198 132/132/198
f 37/37/199 132/132/199 126/126/199
f 131/131/200 126/126/200 132/132/200
f 7/7/201 135/135/201 133/133/201
f 39/39/202 133/133/202 134/134/202
f 38/38/203 134/134/203 135/135/203
f 133/133/204 135/135/204 134/134/204
f 37/37/205 129/129/205 132/132/205
f 38/38/206 132/132/206 134/134/206
f 39/39/207 134/134/207 129/129/207
f 132/132/208 129/129/208 134/134/208
f 4/4/209 137/137/209 130/130/209
f 39/39/210 130/130/210 136/136/210
f 41/41/211 136/136/211 137/137/211
f 130/130/212 137/137/212 136/136/212
f 7/7/213 133/133/213 138/138/213
f 40/40/214 138/138/214 139/139/214
f 39/39/215 139/139/215 133/133/215
f 138/138/216 133/133/216 139/139/216
f 9/9/217 142/142/217 140/140/217
f 41/41/218 140/140/218 141/141/218
f 40/40/219 141/141/219 142/142/219
f 140/140/220 142/142/220 141/141/220
f 39/39/221 136/136/221 139/139/221
f 40/40/222 139/139/222 141/141/222
f 41/41/223 141/141/223 136/136/223
f 139/139/224 136/136/224 141/141/224
f 4/4/225 113/113/225 137/137/225
f 41/41/226 137/137/226 143/143/226
f 33/33/227 143/143/227 113/113/227
f 137/137/228 113/113/228 143/143/228
f 9/9/229 140/140/229 144/144/229
f 42/42/230 144/144/230 145/145/230
f 41/41/231 145/145/231 140/140/231
f 144/144/232 140/140/232 145/145/232
f 10/10/233 147/147/233 118/118/233
f 33/33/234 118/118/234 146/146/234
f 42/42/235 146/146/235 147/147/235
f 118/118/236 147/147/236 146/146/236
f 41/41/237 143/143/237 145/145/237
f 42/42/238 145/145/238 146/146/238
f 33/33/239 146/146/239 143/143/239
f 145/145/240 143/143/240 146/146/240
f 5/5/241 89/89/241 121/121/241
f 34/34/242 121/121/242 148/148/242
f 26/26/243 148/148/243 89/89/243
f 121/121/244 89/89/244 148/148/244
f 10/10/245 116/116/245 84/84/245
f 23/23/246 84/84/246 149/149/246
f 34/34/247 149/149/247 116/116/247
f 84/84/248 116/116/248 149/149/248
f 6/6/249 80/80/249 86/86/249
f 26/26/250 86/86/250 150/150/250
f 23/23/251 150/150/251 80/80/251
f 86/86/252 80/80/252 150/150/252
f 34/34/253 148/148/253 149/149/253
f 23/23/254 149/149/254 150/150/254
f 26/26/255 150/150/255 148/148/255
f 149/149/256 148/148/256 150/150/256
f 3/3/257 96/96/257 128/128/257
f 36/36/258 128/128/258 151/151/258
f 28/28/259 151/151/259 96/96/259
f 128/128/260 96/96/260 151/151/260
f 5/5/261 124/124/261 91/91/261
f 25/25/262 91/91/262 152/152/262
f 36/36/263 152/152/263 124/124/263
f 91/91/264 124/124/264 152/152/264
f 12/12/265 87/87/265 93/93/265
f 28/28/266 93/93/266 153/153/266
f 25/25/267 153/153/267 87/87/267
f 93/93/268 87/87/268 153/153/268
f 36/36/269 151/151/269 152/152/269
f 25/25/270 152/152/270 153/153/270
f 28/28/271 153/153/271 151/151/271
f 152/152/272 151/151/272 153/153/272
f 7/7/273 103/103/273 135/135/273
f 38/38/274 135/135/274 154/154/274
f 30/30/275 154/154/275 103/103/275
f 135/135/276 103/103/276 154/154/276
f 3/3/277 131/131/277 98/98/277
f 27/27/278 98/98/278 155/155/278
f 38/38/279 155/155/279 131/131/279
f 98/98/280 131/131/280 155/155/280
f 11/11/281 94/94/281 100/100/281
f 30/30/282 100/100/282 156/156/282
f 27/27/283 156/156/283 94/94/283
f 100/100/284 94/94/284 156/156/284
f 38/38/285 154/154/285 155/155/285
f 27/27/286 155/155/286 156/156/286
f 30/30/287 156/156/287 154/154/287
f 155/155/288 154/154/288 156/156/288
f 9/9/289 110/110/289 142/142/289
f 40/40/290 142/142/290 157/157/290
f 32/32/291 157/157/291 110/110/291
f 142/142/292 110/110/292 157/157/292
f 7/7/293 138/138/293 105/105/293
f 29/29/294 105/105/294 158/158/294
f 40/40/295 158/158/295 138/138/295
f 105/105/296 138/138/296 158/158/296
f 8/8/297 101/101/297 107/107/297
f 32/32/298 107/107/298 159/159/298
f 29/29/299 159/159/299 101/101/299
f 107/107/300 101/101/300 159/159/300
f 40/40/301 157/157/301 158/158/301
f 29/29/302 158/158/302 159/159/302
f 32/32/303 159/159/303 157/157/303
f 158/158/304 157/157/304 159/159/304
f 10/10/305 82/82/305 147/147/305
f 42/42/306 147/147/306 160/160/306
f 24/24/307 160/160/307 82/82/307
f 147/147/308 82/82/308 160/160/308
f 9/9/309 144/144/309 112/112/309
f 31/31/310 112/112/310 161/161/310
f 42/42/311 161/161/311 144/144/311
f 112/112/312 144/144/312 161/161/312
f 2/2/313 108/108/313 79/79/313
f 24/24/314 79/79/314 162/162/314
f 31/31/315 162/162/315 108/108/315
f 79/79/316 108/108/316 162/162/316
f 42/42/317 160/160/317 161/161/317
f 31/31/318 161/161/318 162/162/318
f 24/24/319 162/162/319 160/160/319
f 161/161/320 160/160/320 162/162/320
