# shard (stage: vent) — generated by scripts/gen-assets.py (do not edit by hand)
v -0.204984 -0.758105 0.000000
v 0.220715 -0.816286 0.000000
v -0.514342 1.902223 0.000000
v 0.360119 1.331850 0.000000
v 0.000000 0.783696 0.554770
v 0.000000 -0.466312 0.330098
v 0.000000 0.427093 -0.302335
v 0.000000 -0.454358 -0.321635
v 0.701074 -0.000000 -0.433288
v 0.414780 -0.000000 0.256348
v -0.551081 -0.000000 -0.340587
v -0.382796 -0.000000 0.236581
v -0.621840 -0.878441 0.237522
v -0.242944 -0.343195 0.393092
v -0.304361 -1.821319 0.492466
v 0.230708 -1.380577 0.373294
v 0.000000 -2.059988 0.000000
v 0.286397 -1.713824 -0.463401
v -0.291382 -1.743650 -0.471465
v -0.435796 -0.615627 -0.705133
v -0.591449 -0.835510 -0.225913
v -0.687711 -0.000000 0.000000
v 0.481721 -0.680503 0.779442
v 0.567659 -0.801902 0.216826
v -0.438885 0.619991 0.710131
v 0.000000 -0.000000 0.601892
v -0.552187 0.780046 -0.210917
v -0.416604 0.588515 0.159128
v 0.000000 -0.000000 -0.537131
v -0.275182 0.388735 -0.445254
v 0.666381 -0.941362 -0.254535
v 0.367221 -0.518755 -0.594177
v 0.503194 0.710837 0.192203
v 0.409528 0.578519 0.662630
v 0.313608 1.876654 0.507428
v -0.248462 1.486815 0.402020
v 0.000000 1.200702 0.000000
v -0.286557 1.714778 -0.463659
v 0.272116 1.628364 -0.440293
v 0.483399 0.682873 -0.782156
v 0.424347 0.599454 -0.162086
v 1.028697 -0.000000 0.000000
vt 1.000000 0.915942
vt 0.500000 0.915942
vt 1.000000 0.084058
vt 0.500000 0.084058
vt 0.750000 0.196079
vt 0.750000 0.803921
vt 0.250000 0.196079
vt 0.250000 0.803921
vt 0.411896 0.500000
vt 0.588104 0.500000
vt 0.088104 0.500000
vt 0.911896 0.500000
vt 0.941930 0.793590
vt 0.838104 0.703335
vt 0.838104 0.902036
vt 0.661896 0.902036
vt 0.500000 1.000000
vt 0.338104 0.902036
vt 0.161896 0.902036
vt 0.161896 0.703335
vt 0.058070 0.793590
vt 1.000000 0.500000
vt 0.661896 0.703335
vt 0.558070 0.793590
vt 0.838104 0.296665
vt 0.750000 0.500000
vt 0.058070 0.206410
vt 0.941930 0.206410
vt 0.250000 0.500000
vt 0.161896 0.296665
vt 0.441930 0.793590
vt 0.338104 0.703335
vt 0.558070 0.206410
vt 0.661896 0.296665
vt 0.661896 0.097964
vt 0.838104 0.097964
vt 0.500000 0.000000
vt 0.161896 0.097964
vt 0.338104 0.097964
vt 0.338104 0.296665
vt 0.441930 0.206410
vt 0.500000 0.500000
vn -0.381740 -0.358845 -0.851766
vn -0.549960 0.150537 0.821512
vn 0.275755 0.053067 0.959762
vn -0.471695 0.078643 0.878248
vn -0.870963 -0.137135 -0.471824
vn 0.149906 0.084370 0.985094
vn 0.945527 -0.167799 -0.278966
vn 0.577885 -0.534899 0.616386
vn -0.881362 -0.138772 0.451600
vn 0.888346 -0.157652 0.431261
vn 0.008000 0.113646 -0.993489
vn 0.050121 -0.814748 -0.577645
vn -0.415073 -0.362746 0.834344
vn 0.672913 -0.066463 -0.736730
vn -0.951592 0.003794 -0.307341
vn -0.903062 -0.194899 -0.382745
vn 0.237352 -0.968589 -0.074163
vn -0.928087 -0.006259 -0.372311
vn -0.604573 0.165353 0.779198
vn -0.992790 -0.094414 -0.073851
vn 0.479622 -0.478205 -0.735720
vn -0.708763 -0.146245 0.690121
vn 0.977306 0.180884 0.110249
vn 0.866957 -0.443150 0.228045
vn -0.031156 -0.503320 0.863538
vn -0.932079 -0.269348 0.242241
vn 0.314203 0.056979 0.947644
vn -0.274378 -0.350559 0.895447
vn -0.611567 0.068602 0.788213
vn -0.926407 0.060465 -0.371637
vn -0.943480 -0.030215 0.330049
vn -0.850601 0.269811 0.451309
vn -0.663913 0.285057 -0.691348
vn 0.690148 -0.310114 -0.653854
vn 0.361700 0.449135 -0.816977
vn 0.025008 0.246672 -0.968776
vn -0.600590 -0.046727 -0.798191
vn 0.364665 -0.405965 0.837981
vn 0.627008 -0.167570 -0.760777
vn 0.661705 -0.125638 -0.739163
vn 0.975260 0.189416 -0.113975
vn 0.980449 -0.107050 0.165107
vn -0.205674 0.101177 0.973376
vn 0.970372 0.098100 0.220803
vn -0.237153 0.651199 -0.720901
vn -0.260362 0.116225 0.958490
vn 0.804046 0.589511 0.077379
vn -0.331238 0.659923 -0.674376
vn -0.280180 0.769346 0.574114
vn 0.796685 0.584114 0.155251
vn 0.023073 -0.119220 -0.992600
vn 0.076831 0.691052 0.718710
vn 0.986191 0.113232 -0.120857
vn -0.724320 0.085507 -0.684141
vn 0.921491 0.363560 0.136667
vn 0.977404 0.176188 0.116785
vn 0.956104 0.140729 -0.257024
vn 0.671505 0.539700 -0.507746
vn 0.385079 0.035323 0.922207
vn 0.705235 0.616178 -0.350668
vn -0.226766 0.058455 0.972193
vn 0.996836 0.051545 -0.060511
vn -0.717408 -0.350810 0.601879
vn -0.249513 0.075266 0.965442
vn -0.831485 0.005428 0.555520
vn 0.224925 0.282096 0.932647
vn -0.997390 -0.062137 -0.036783
vn -0.979082 0.197011 -0.050846
vn 0.461806 -0.008349 -0.886942
vn -0.871313 0.118872 -0.476113
vn -0.517110 0.139643 -0.844451
vn -0.658926 -0.016090 -0.752035
vn 0.638583 -0.178831 -0.748486
vn -0.747330 0.320102 -0.582265
vn -0.597803 -0.343529 -0.724306
vn -0.312159 -0.117302 -0.942760
vn 0.385168 0.027968 0.922422
vn 0.789511 -0.142455 -0.596974
vn -0.121573 -0.958437 0.258107
vn 0.859450 -0.412457 0.302036
f 1/1/1 15/15/1 13/13/1
f 12/12/2 13/13/2 14/14/2
f 6/6/3 14/14/3 15/15/3
f 13/13/4 15/15/4 14/14/4
f 1/1/5 17/17/5 15/15/5
f 6/6/6 15/15/6 16/16/6
f 2/2/7 16/16/7 17/17/7
f 15/15/8 17/17/8 16/16/8
f 1/1/9 19/19/9 17/17/9
f 2/2/10 17/17/10 18/18/10
f 8/8/11 18/18/11 19/19/11
f 17/17/12 19/19/12 18/18/12
f 1/1/13 21/21/13 19/19/13
f 8/8/14 19/19/14 20/20/14
f 11/11/15 20/20/15 21/21/15
f 19/19/16 21/21/16 20/20/16
f 1/1/17 13/13/17 21/21/17
f 11/11/18 21/21/18 22/22/18
f 12/12/19 22/22/19 13/13/19
f 21/21/20 13/13/20 22/22/20
f 2/2/21 24/24/21 16/16/21
f 6/6/22 16/16/22 23/23/22
f 10/10/23 23/23/23 24/24/23
f 16/16/24 24/24/24 23/23/24
f 6/6/25 26/26/25 14/14/25
f 12/12/26 14/14/26 25/25/26
f 5/5/27 25/25/27 26/26/27
f 14/14/28 26/26/28 25/25/28
f 12/12/29 28/28/29 22/22/29
f 11/11/30 22/22/30 27/27/30
f 3/3/31 27/27/31 28/28/31
f 22/22/32 28/28/32 27/27/32
f 11/11/33 30/30/33 20/20/33
f 8/8/34 20/20/34 29/29/34
f 7/7/35 29/29/35 30/30/35
f 20/20/36 30/30/36 29/29/36
f 8/8/37 32/32/37 18/18/37
f 2/2/38 18/18/38 31/31/38
f 9/9/39 31/31/39 32/32/39
f 18/18/40 32/32/40 31/31/40
f 4/4/41 35/35/41 33/33/41
f 10/10/42 33/33/42 34/34/42
f 5/5/43 34/34/43 35/35/43
f 33/33/44 35/35/44 34/34/44
f 4/4/45 37/37/45 35/35/45
f 5/5/46 35/35/46 36/36/46
f 3/3/47 36/36/47 37/37/47
f 35/35/48 37/37/48 36/36/48
f 4/4/49 39/39/49 37/37/49
f 3/3/50 37/37/50 38/38/50
f 7/7/51 38/38/51 39/39/51
f 37/37/52 39/39/52 38/38/52
f 4/4/53 41/41/53 39/39/53
f 7/7/54 39/39/54 40/40/54
f 9/9/55 40/40/55 41/41/55
f 39/39/56 41/41/56 40/40/56
f 4/4/57 33/33/57 41/41/57
f 9/9/58 41/41/58 42/42/58
f 10/10/59 42/42/59 33/33/59
f 41/41/60 33/33/60 42/42/60
f 5/5/61 26/26/61 34/34/61
f 10/10/62 34/34/62 23/23/62
f 6/6/63 23/23/63 26/26/63
f 34/34/64 26/26/64 23/23/64
f 3/3/65 28/28/65 36/36/65
f 5/5/66 36/36/66 25/25/66
f 12/12/67 25/25/67 28/28/67
f 36/36/68 28/28/68 25/25/68
f 7/7/69 30/30/69 38/38/69
f 3/3/70 38/38/70 27/27/70
f 11/11/71 27/27/71 30/30/71
f 38/38/72 30/30/72 27/27/72
f 9/9/73 32/32/73 40/40/73
f 7/7/74 40/40/74 29/29/74
f 8/8/75 29/29/75 32/32/75
f 40/40/76 32/32/76 29/29/76
f 10/10/77 24/24/77 42/42/77
f 9/9/78 42/42/78 31/31/78
f 2/2/79 31/31/79 24/24/79
f 42/42/80 24/24/80 31/31/80
